<svg width="24" height="24" viewBox="0 0 24 24" fill="none" xmlns="http://www.w3.org/2000/svg">
<g clip-path="url(#clip0_1_2)">
<path d="M11.7524 13.344C12.4947 13.344 13.0965 12.7423 13.0965 12C13.0965 11.2577 12.4947 10.6559 11.7524 10.6559C11.0101 10.6559 10.4084 11.2577 10.4084 12C10.4084 12.7423 11.0101 13.344 11.7524 13.344Z" fill="black" stroke="black" stroke-linecap="round" stroke-linejoin="round"/>
<path d="M11.7524 17.3762C17.6909 17.3762 22.5049 14.9692 22.5049 12C22.5049 9.03079 17.6909 6.62377 11.7524 6.62377C5.81403 6.62377 1 9.03079 1 12C1 14.9692 5.81403 17.3762 11.7524 17.3762Z" stroke="#F97316" stroke-linecap="round" stroke-linejoin="round"/>
<path d="M7.09651 14.6881C10.0657 19.8309 14.5573 22.7965 17.1287 21.3119C19.7001 19.8273 19.3776 14.4547 16.4084 9.31189C13.4392 4.16907 8.94764 1.20351 6.37623 2.68811C3.80482 4.17271 4.1273 9.5453 7.09651 14.6881Z" stroke="#16A049" stroke-linecap="round" stroke-linejoin="round"/>
<path d="M7.0965 9.31189C4.1273 14.4547 3.80482 19.8273 6.37623 21.3119C8.94763 22.7965 13.4392 19.8309 16.4084 14.6881C19.3776 9.5453 19.7001 4.17271 17.1287 2.68811C14.5573 1.20351 10.0657 4.16907 7.0965 9.31189Z" stroke="#2862EB" stroke-linecap="round" stroke-linejoin="round"/>
</g>
<defs>
<clipPath id="clip0_1_2">
<rect width="24" height="24" fill="white"/>
</clipPath>
</defs>
</svg>
