<svg width="320" height="333" viewBox="0 0 320 333" fill="none" xmlns="http://www.w3.org/2000/svg">
<rect width="320" height="333" fill="white"/>
<path d="M147.933 161.308C146.999 161.898 146.719 163.133 147.308 164.067C147.898 165.001 149.133 165.281 150.067 164.692L149 163L147.933 161.308ZM279 81L255.924 81.9036L268.244 101.436L279 81ZM149 163L150.067 164.692L264.843 92.2947L263.776 90.6031L262.709 88.9115L147.933 161.308L149 163Z" fill="#81B4FE"/>
<g clip-path="url(#clip0_2230_427)">
<path d="M181.089 109.454C180.745 109.454 180.573 109.381 180.573 109.237C180.573 109.146 180.718 108.64 181.007 107.717C181.297 106.794 181.605 105.88 181.93 104.975L182.392 103.645C182.482 103.319 182.6 103.084 182.745 102.939H195.448H197.891C198.47 102.939 198.814 102.948 198.923 102.966C199.031 102.984 199.095 103.066 199.113 103.211C199.113 103.319 198.959 104.351 198.651 106.305C198.344 108.26 198.172 109.246 198.136 109.264C198.136 109.391 197.964 109.454 197.62 109.454C197.457 109.454 197.348 109.454 197.294 109.454C197.24 109.454 197.186 109.409 197.131 109.318L197.077 109.237C197.077 109.128 197.131 108.721 197.24 108.015C197.348 107.309 197.403 106.758 197.403 106.359C197.403 105.726 197.285 105.246 197.05 104.921C196.815 104.595 196.317 104.369 195.557 104.242C195.466 104.224 194.942 104.206 193.983 104.188C193.15 104.188 192.625 104.197 192.408 104.215C192.191 104.233 192.028 104.305 191.92 104.432C191.901 104.45 191.259 106.975 189.992 112.005C188.726 117.036 188.092 119.597 188.092 119.687C188.092 119.904 188.888 120.031 190.481 120.067C191.06 120.067 191.431 120.076 191.594 120.094C191.757 120.113 191.838 120.194 191.838 120.339C191.838 120.429 191.811 120.556 191.757 120.719C191.684 121.045 191.603 121.235 191.512 121.289L191.458 121.316C191.404 121.316 191.34 121.316 191.268 121.316C191.178 121.316 190.707 121.307 189.857 121.289C189.006 121.271 187.785 121.262 186.192 121.262C183.858 121.262 182.374 121.28 181.74 121.316H181.333C181.225 121.207 181.17 121.126 181.17 121.072C181.17 121.017 181.188 120.855 181.225 120.583C181.297 120.348 181.388 120.176 181.496 120.067H182.256H182.555C184.002 120.067 184.862 119.986 185.133 119.823C185.152 119.805 185.17 119.796 185.188 119.796C185.278 119.742 185.369 119.561 185.459 119.253C185.55 118.945 185.912 117.525 186.545 114.991C186.853 113.761 187.106 112.756 187.305 111.978C188.572 107.002 189.205 104.459 189.205 104.351C189.205 104.26 188.943 104.215 188.418 104.215H187.576C186.364 104.215 185.568 104.269 185.188 104.378C184.373 104.559 183.74 104.93 183.288 105.491C182.835 106.052 182.347 107.101 181.822 108.64C181.695 109.038 181.605 109.273 181.55 109.345C181.496 109.418 181.369 109.454 181.17 109.454H181.089Z" fill="#81B4FE"/>
<path d="M196.081 95.2573C196.081 95.1126 196.126 94.9859 196.217 94.8773C196.307 94.7687 196.443 94.7145 196.624 94.7145C196.75 94.7145 196.859 94.7597 196.949 94.8502C197.04 94.9226 197.13 95.0945 197.221 95.3659C197.402 96.0355 197.773 96.5512 198.334 96.9132C198.533 97.0398 198.632 97.2027 198.632 97.4018C198.632 97.5646 198.605 97.6732 198.551 97.7275C198.497 97.7818 198.37 97.8632 198.171 97.9718C197.393 98.3699 196.714 98.9399 196.135 99.6819C196.099 99.7181 196.054 99.7724 195.999 99.8448C195.945 99.9171 195.9 99.9714 195.864 100.008C195.827 100.044 195.782 100.062 195.728 100.062C195.674 100.062 195.61 100.071 195.538 100.089C195.411 100.089 195.294 100.044 195.185 99.9533C195.076 99.8628 195.013 99.7271 194.995 99.5462C194.995 99.2023 195.42 98.6685 196.271 97.9446H191.629L186.987 97.9175C186.752 97.7546 186.635 97.5827 186.635 97.4018C186.635 97.2751 186.752 97.0941 186.987 96.8589H196.732C196.298 96.1712 196.081 95.6374 196.081 95.2573Z" fill="#81B4FE"/>
</g>
<path d="M9 162.5H8.5V163.5H9V163V162.5ZM287.354 163.354C287.549 163.158 287.549 162.842 287.354 162.646L284.172 159.464C283.976 159.269 283.66 159.269 283.464 159.464C283.269 159.66 283.269 159.976 283.464 160.172L286.293 163L283.464 165.828C283.269 166.024 283.269 166.34 283.464 166.536C283.66 166.731 283.976 166.731 284.172 166.536L287.354 163.354ZM9 163V163.5H287V163V162.5H9V163Z" fill="black"/>
<g clip-path="url(#clip1_2230_427)">
<path d="M297.412 160.155C297.538 159.395 298.027 158.517 298.878 157.521C299.728 156.526 300.778 156.019 302.027 156.001C302.66 156.001 303.239 156.164 303.764 156.49C304.289 156.816 304.678 157.223 304.931 157.711C305.691 156.571 306.605 156.001 307.673 156.001C308.343 156.001 308.922 156.2 309.411 156.598C309.899 156.997 310.153 157.531 310.171 158.2C310.171 158.725 310.044 159.15 309.791 159.476C309.537 159.802 309.293 160.001 309.058 160.073C308.822 160.146 308.614 160.182 308.433 160.182C308.089 160.182 307.809 160.082 307.592 159.883C307.375 159.684 307.266 159.422 307.266 159.096C307.266 158.263 307.718 157.693 308.623 157.386C308.424 157.15 308.062 157.033 307.537 157.033C307.302 157.033 307.13 157.051 307.022 157.087C306.334 157.377 305.827 157.974 305.501 158.879C304.416 162.878 303.873 165.213 303.873 165.883C303.873 166.389 304.017 166.751 304.307 166.969C304.596 167.186 304.913 167.294 305.257 167.294C305.927 167.294 306.587 166.996 307.239 166.398C307.89 165.801 308.334 165.068 308.569 164.2C308.623 164.019 308.678 163.919 308.732 163.901C308.786 163.883 308.931 163.865 309.166 163.847H309.275C309.546 163.847 309.682 163.919 309.682 164.064C309.682 164.082 309.664 164.181 309.628 164.362C309.338 165.394 308.777 166.308 307.945 167.104C307.112 167.901 306.144 168.299 305.04 168.299C303.773 168.299 302.814 167.729 302.162 166.589C301.42 167.711 300.57 168.272 299.611 168.272H299.448C298.561 168.272 297.927 168.036 297.547 167.566C297.167 167.095 296.968 166.598 296.95 166.073C296.95 165.494 297.122 165.023 297.466 164.661C297.81 164.299 298.217 164.118 298.688 164.118C299.466 164.118 299.855 164.498 299.855 165.258C299.855 165.62 299.746 165.937 299.529 166.208C299.312 166.48 299.104 166.661 298.905 166.751C298.706 166.842 298.588 166.887 298.552 166.887L298.47 166.914C298.47 166.932 298.525 166.969 298.633 167.023C298.742 167.077 298.887 167.141 299.068 167.213C299.249 167.285 299.42 167.312 299.583 167.294C300.235 167.294 300.796 166.887 301.266 166.073C301.429 165.783 301.637 165.168 301.891 164.227C302.144 163.286 302.398 162.308 302.651 161.295C302.904 160.281 303.049 159.684 303.085 159.503C303.176 159.015 303.221 158.662 303.221 158.444C303.221 157.938 303.085 157.576 302.814 157.359C302.542 157.141 302.235 157.033 301.891 157.033C301.167 157.033 300.488 157.322 299.855 157.902C299.221 158.481 298.778 159.223 298.525 160.128C298.488 160.29 298.443 160.381 298.389 160.399C298.335 160.417 298.19 160.435 297.955 160.453H297.575C297.466 160.345 297.412 160.245 297.412 160.155Z" fill="black"/>
</g>
<path d="M149.354 32.6464C149.158 32.4512 148.842 32.4512 148.646 32.6464L145.464 35.8284C145.269 36.0237 145.269 36.3403 145.464 36.5355C145.66 36.7308 145.976 36.7308 146.172 36.5355L149 33.7071L151.828 36.5355C152.024 36.7308 152.34 36.7308 152.536 36.5355C152.731 36.3403 152.731 36.0237 152.536 35.8284L149.354 32.6464ZM148.5 311L148.5 311.5L149.5 311.5L149.5 311L149 311L148.5 311ZM149 33L148.5 33L148.5 311L149 311L149.5 311L149.5 33L149 33Z" fill="black"/>
<g clip-path="url(#clip2_2230_427)">
<path d="M142.572 14.2087C142.572 13.9553 142.707 13.5208 142.979 12.9054C143.251 12.2899 143.685 11.6473 144.282 10.9775C144.88 10.3077 145.549 9.98189 146.292 9.99999C147.034 9.99999 147.631 10.2082 148.084 10.6245C148.536 11.0409 148.772 11.6201 148.79 12.3623C148.754 12.7062 148.726 12.8963 148.708 12.9325C148.708 12.9868 148.563 13.4032 148.274 14.1816C147.984 14.9599 147.686 15.8379 147.378 16.8154C147.07 17.7929 146.925 18.5713 146.943 19.1506C146.943 19.9289 147.07 20.472 147.323 20.7797C147.577 21.0875 147.957 21.2504 148.464 21.2685C148.88 21.2685 149.269 21.1689 149.631 20.9698C149.994 20.7707 150.274 20.5625 150.473 20.3453C150.672 20.1281 150.917 19.8294 151.206 19.4492C151.206 19.4311 151.252 19.2501 151.342 18.9062C151.433 18.5622 151.559 18.0282 151.722 17.3042C151.885 16.5801 152.057 15.9103 152.238 15.2948C152.926 12.5795 153.306 11.1585 153.379 11.0318C153.614 10.5431 154.003 10.2987 154.546 10.2987C154.782 10.2987 154.972 10.362 155.116 10.4887C155.261 10.6155 155.361 10.7241 155.415 10.8146C155.469 10.9051 155.487 10.9866 155.469 11.059C155.469 11.2943 155.026 13.195 154.139 16.7611C153.252 20.3272 152.745 22.2822 152.618 22.6261C152.111 24.1286 151.234 25.3233 149.984 26.2103C148.735 27.0973 147.486 27.5499 146.237 27.568C145.423 27.568 144.708 27.3689 144.092 26.9706C143.477 26.5724 143.169 25.975 143.169 25.1785C143.169 24.7803 143.232 24.4454 143.359 24.1739C143.486 23.9023 143.658 23.7032 143.875 23.5765C144.092 23.4498 144.273 23.3593 144.418 23.305C144.563 23.2507 144.717 23.2235 144.88 23.2235C145.676 23.2235 146.074 23.6037 146.074 24.3639C146.074 24.726 145.966 25.0428 145.749 25.3143C145.531 25.5858 145.323 25.7668 145.124 25.8574C144.925 25.9479 144.807 25.9931 144.771 25.9931L144.69 26.0203C144.726 26.1108 144.898 26.2194 145.206 26.3461C145.513 26.4728 145.821 26.5362 146.129 26.5362H146.346C146.654 26.5362 146.889 26.5181 147.052 26.4819C147.649 26.319 148.201 25.975 148.708 25.4501C149.215 24.9251 149.604 24.3639 149.876 23.7666C150.147 23.1692 150.356 22.6623 150.5 22.246C150.645 21.8297 150.718 21.5581 150.718 21.4314L150.555 21.54C150.446 21.6124 150.274 21.712 150.039 21.8387C149.803 21.9654 149.568 22.074 149.333 22.1645C148.971 22.2551 148.618 22.3003 148.274 22.3003C147.441 22.3003 146.708 22.1012 146.074 21.7029C145.441 21.3047 145.025 20.6621 144.825 19.7751C144.807 19.6484 144.798 19.3678 144.798 18.9333C144.798 17.9015 145.115 16.5529 145.749 14.8875C146.382 13.2222 146.699 12.1632 146.699 11.7106C146.699 11.6925 146.699 11.6744 146.699 11.6563C146.699 11.4934 146.699 11.3848 146.699 11.3305C146.699 11.2762 146.663 11.2128 146.59 11.1404C146.518 11.068 146.418 11.0318 146.292 11.0318H146.183C145.767 11.0318 145.387 11.2038 145.043 11.5477C144.699 11.8917 144.427 12.2627 144.228 12.661C144.029 13.0592 143.875 13.4394 143.766 13.8014C143.658 14.1635 143.585 14.3626 143.549 14.3988C143.513 14.435 143.368 14.4531 143.115 14.4531H142.735C142.626 14.3445 142.572 14.263 142.572 14.2087Z" fill="black"/>
</g>
<path d="M148 165C149.105 165 150 164.105 150 163C150 161.895 149.105 161 148 161V163V165ZM53 163L73 174.547V151.453L53 163ZM148 163V161H71V163V165H148V163Z" fill="#C83737"/>
<path d="M96.2027 156.477C96.2389 156.477 96.2932 156.496 96.3656 156.532C96.438 156.568 96.5375 156.595 96.6641 156.613C96.7908 156.631 96.8994 156.64 96.9898 156.64C97.2251 156.64 97.4422 156.523 97.6412 156.288C97.8403 156.052 97.985 155.79 98.0755 155.5C98.2565 155.012 98.5641 153.628 98.9983 151.348C99.4326 149.068 99.8488 146.896 100.247 144.834C100.645 142.771 100.844 141.73 100.844 141.712V141.631H99.5683C98.7179 141.631 98.2655 141.613 98.2112 141.577C98.1388 141.522 98.1027 141.432 98.1027 141.305L98.2927 140.545C98.3288 140.455 98.4012 140.41 98.5098 140.41C98.6184 140.41 99.0436 140.4 99.7855 140.382C100.654 140.382 101.088 140.373 101.088 140.355C101.088 140.319 101.17 139.867 101.333 138.998C101.495 138.13 101.604 137.605 101.658 137.424C102.328 134.438 103.649 132.946 105.621 132.946C106.29 132.982 106.842 133.181 107.277 133.543C107.711 133.905 107.928 134.384 107.928 134.981C107.928 135.633 107.738 136.103 107.358 136.393C106.978 136.682 106.598 136.836 106.218 136.854C105.422 136.854 105.024 136.474 105.024 135.714C105.024 135.37 105.123 135.072 105.322 134.818C105.521 134.565 105.739 134.375 105.974 134.248L106.218 134.113C105.929 134.004 105.657 133.95 105.404 133.95C105.187 133.95 104.979 134.04 104.78 134.221C104.581 134.402 104.445 134.655 104.372 134.981C104.246 135.506 104.101 136.212 103.938 137.098C103.775 137.985 103.631 138.736 103.504 139.351C103.377 139.966 103.314 140.292 103.314 140.328C103.314 140.364 103.811 140.382 104.807 140.382C105.621 140.382 106.091 140.391 106.218 140.41C106.345 140.428 106.444 140.482 106.517 140.572C106.535 140.645 106.517 140.799 106.462 141.034C106.408 141.269 106.363 141.414 106.327 141.468C106.29 141.559 106.209 141.604 106.082 141.604C105.956 141.604 105.467 141.613 104.617 141.631H103.097L102.472 144.942C101.604 149.43 100.998 152.234 100.654 153.356C100.165 154.894 99.5321 156.034 98.7541 156.776C98.0846 157.355 97.4241 157.645 96.7727 157.645C96.1937 157.645 95.6689 157.473 95.1985 157.129C94.728 156.785 94.4928 156.297 94.4928 155.663C94.4928 154.994 94.6828 154.505 95.0628 154.198C95.4428 153.89 95.8227 153.736 96.2027 153.736C96.9989 153.736 97.397 154.116 97.397 154.876C97.397 155.22 97.2975 155.518 97.0984 155.772C96.8994 156.025 96.6822 156.215 96.447 156.342L96.2027 156.477Z" fill="#C83737"/>
<path d="M108.851 125.264C108.851 125.12 108.896 124.993 108.987 124.884C109.077 124.776 109.213 124.722 109.394 124.722C109.52 124.722 109.629 124.767 109.719 124.857C109.81 124.93 109.9 125.102 109.991 125.373C110.172 126.042 110.543 126.558 111.104 126.92C111.303 127.047 111.402 127.21 111.402 127.409C111.402 127.571 111.375 127.68 111.321 127.734C111.266 127.789 111.14 127.87 110.941 127.979C110.163 128.377 109.484 128.947 108.905 129.689C108.869 129.725 108.824 129.779 108.769 129.851C108.715 129.924 108.67 129.978 108.634 130.014C108.597 130.05 108.552 130.069 108.498 130.069C108.444 130.069 108.38 130.078 108.308 130.096C108.181 130.096 108.064 130.05 107.955 129.96C107.847 129.869 107.783 129.734 107.765 129.553C107.765 129.209 108.19 128.675 109.041 127.951H104.4L99.7583 127.924C99.5231 127.761 99.4055 127.59 99.4055 127.409C99.4055 127.282 99.5231 127.101 99.7583 126.866H109.502C109.068 126.178 108.851 125.644 108.851 125.264Z" fill="#C83737"/>
<path d="M149 323L160.547 303L137.453 303L149 323ZM149 163L147 163L147 305L149 305L151 305L151 163L149 163Z" fill="#007F7F"/>
<g clip-path="url(#clip3_2230_427)">
<path d="M171.791 275.434C171.791 275.308 171.276 275.226 170.244 275.19C169.81 275.19 169.529 275.181 169.402 275.163C169.276 275.145 169.212 275.054 169.212 274.891C169.212 274.873 169.23 274.774 169.267 274.593C169.375 274.231 169.457 274.032 169.511 273.996C169.565 273.959 171.321 273.941 174.778 273.941C178.216 273.959 180.053 273.987 180.289 274.023C181.447 274.222 182.415 274.665 183.193 275.353C183.972 276.041 184.37 276.955 184.388 278.095C184.388 279.489 183.791 280.764 182.596 281.923C181.347 283.153 179.737 283.932 177.764 284.257C177.637 284.276 176.687 284.294 174.913 284.312H172.334L171.52 287.542C170.977 289.642 170.706 290.755 170.706 290.882C170.706 290.954 170.715 290.999 170.733 291.017C170.751 291.035 170.814 291.072 170.923 291.126C171.031 291.18 171.185 291.198 171.384 291.18C171.583 291.162 171.882 291.18 172.28 291.234H173.122C173.23 291.397 173.285 291.497 173.285 291.533C173.285 291.823 173.221 292.094 173.095 292.348C173.004 292.438 172.859 292.483 172.66 292.483C172.606 292.483 172.271 292.474 171.656 292.456C171.04 292.438 170.135 292.429 168.941 292.429C167.819 292.429 166.959 292.429 166.362 292.429C165.765 292.429 165.439 292.438 165.385 292.456C165.059 292.456 164.896 292.366 164.896 292.185C164.896 292.148 164.923 292.022 164.977 291.805C165.05 291.515 165.122 291.352 165.194 291.316C165.267 291.28 165.475 291.253 165.819 291.234C166.308 291.234 166.851 291.207 167.448 291.153C167.701 291.099 167.873 290.99 167.964 290.827C168.018 290.755 168.669 288.239 169.918 283.28C171.167 278.321 171.791 275.706 171.791 275.434ZM181.51 277.443C181.51 277.208 181.492 277.018 181.456 276.873C181.42 276.729 181.338 276.529 181.212 276.276C181.085 276.023 180.859 275.824 180.533 275.679C180.207 275.534 179.764 275.389 179.203 275.244C179.076 275.226 178.352 275.208 177.031 275.19C176.723 275.19 176.407 275.19 176.081 275.19C175.755 275.19 175.493 275.199 175.293 275.217C175.094 275.235 174.986 275.235 174.968 275.217C174.732 275.235 174.57 275.317 174.479 275.462C174.443 275.57 174.271 276.267 173.963 277.552C173.656 278.837 173.339 280.086 173.013 281.298C172.687 282.511 172.524 283.126 172.524 283.144C172.524 283.181 173.257 283.199 174.723 283.199H175.049H175.674C177.701 283.199 179.148 282.746 180.017 281.841C180.506 281.353 180.877 280.638 181.13 279.697C181.384 278.756 181.51 278.004 181.51 277.443Z" fill="#007F7F"/>
<path d="M180.642 266.259C180.642 266.114 180.687 265.987 180.777 265.878C180.868 265.77 181.004 265.716 181.185 265.716C181.311 265.716 181.42 265.761 181.51 265.851C181.601 265.924 181.691 266.096 181.782 266.367C181.963 267.037 182.334 267.553 182.895 267.915C183.094 268.041 183.193 268.204 183.193 268.403C183.193 268.566 183.166 268.675 183.112 268.729C183.058 268.783 182.931 268.865 182.732 268.973C181.954 269.371 181.275 269.942 180.696 270.684C180.66 270.72 180.614 270.774 180.56 270.846C180.506 270.919 180.461 270.973 180.424 271.009C180.388 271.046 180.343 271.064 180.289 271.064C180.234 271.064 180.171 271.073 180.099 271.091C179.972 271.091 179.854 271.046 179.746 270.955C179.637 270.865 179.574 270.729 179.556 270.548C179.556 270.204 179.981 269.67 180.832 268.946H176.189L171.547 268.919C171.312 268.756 171.194 268.584 171.194 268.403C171.194 268.276 171.312 268.096 171.547 267.86H181.293C180.859 267.172 180.642 266.639 180.642 266.259Z" fill="#007F7F"/>
</g>
<g clip-path="url(#clip4_2230_427)">
<path d="M160.353 66.19C160.298 66.19 160.226 66.19 160.136 66.19C159.683 66.19 159.412 66.181 159.321 66.1629C159.231 66.1448 159.185 66.0452 159.185 65.8642C159.185 65.3756 159.285 65.0769 159.484 64.9683C159.52 64.9502 160.398 64.9412 162.117 64.9412C163.511 64.9412 164.307 64.9412 164.507 64.9412C164.706 64.9412 164.832 64.9955 164.887 65.1041C168.706 74.0812 170.651 78.6874 170.724 78.9227L172.19 73.1401C173.149 69.3212 173.628 67.285 173.628 67.0316C173.628 66.5429 173.049 66.2624 171.891 66.19C171.457 66.19 171.239 66.0905 171.239 65.8914C171.239 65.8552 171.257 65.7466 171.294 65.5656C171.366 65.276 171.42 65.1041 171.457 65.0498C171.493 64.9955 171.583 64.9593 171.728 64.9412C171.782 64.9412 172.063 64.9502 172.57 64.9683C173.076 64.9864 173.828 65.0045 174.823 65.0226C175.728 65.0226 176.416 65.0136 176.886 64.9955C177.357 64.9774 177.628 64.9683 177.701 64.9683C177.972 64.9683 178.108 65.0588 178.108 65.2398C178.108 65.638 178.036 65.9095 177.891 66.0543C177.855 66.1448 177.656 66.19 177.294 66.19C176.009 66.2624 175.203 66.6244 174.877 67.276L170.832 83.2937C170.796 83.4204 170.606 83.4837 170.262 83.4837C170.009 83.4837 169.855 83.4656 169.801 83.4294C169.746 83.3751 168.579 80.6331 166.298 75.2034L162.85 67.0859L161.086 74.1446C159.909 78.7779 159.321 81.1761 159.321 81.339C159.412 81.9362 160.063 82.2349 161.276 82.2349H161.547C161.656 82.3254 161.71 82.3978 161.71 82.4521C161.71 82.5064 161.692 82.6783 161.656 82.9679C161.584 83.2032 161.493 83.3751 161.384 83.4837H161.032C160.47 83.4475 159.493 83.4294 158.099 83.4294C157.593 83.4294 157.131 83.4294 156.715 83.4294C156.299 83.4294 155.964 83.4294 155.71 83.4294C155.457 83.4294 155.303 83.4385 155.249 83.4566C154.977 83.4566 154.842 83.3751 154.842 83.2122C154.842 83.1398 154.869 82.995 154.923 82.7778C154.977 82.5606 155.023 82.434 155.059 82.3978C155.095 82.2892 155.303 82.2349 155.683 82.2349C156.914 82.1806 157.71 81.8276 158.072 81.1761C158.145 81.0675 158.787 78.5607 160 73.6559L161.846 66.2715C161.81 66.2534 161.312 66.2262 160.353 66.19Z" fill="#7A5E2F"/>
<path d="M172.342 57.2581C172.342 57.1133 172.387 56.9866 172.477 56.878C172.568 56.7694 172.704 56.7151 172.885 56.7151C173.011 56.7151 173.12 56.7604 173.21 56.8509C173.301 56.9233 173.391 57.0952 173.482 57.3667C173.663 58.0364 174.034 58.5522 174.595 58.9142C174.794 59.0409 174.894 59.2038 174.894 59.4029C174.894 59.5658 174.866 59.6743 174.812 59.7286C174.758 59.7829 174.631 59.8644 174.432 59.973C173.654 60.3712 172.975 60.9413 172.396 61.6833C172.36 61.7195 172.314 61.7738 172.26 61.8462C172.206 61.9186 172.161 61.9729 172.124 62.0091C172.088 62.0453 172.043 62.0634 171.989 62.0634C171.934 62.0634 171.871 62.0725 171.799 62.0906C171.672 62.0906 171.554 62.0453 171.446 61.9548C171.337 61.8643 171.274 61.7286 171.256 61.5476C171.256 61.2037 171.681 60.6698 172.532 59.9458H167.889L163.247 59.9187C163.012 59.7558 162.894 59.5839 162.894 59.4029C162.894 59.2762 163.012 59.0952 163.247 58.8599H172.993C172.559 58.1721 172.342 57.6382 172.342 57.2581Z" fill="#7A5E2F"/>
</g>
<path d="M149 85L137.453 105L160.547 105L149 85ZM149 163L151 163L151 103L149 103L147 103L147 163L149 163Z" fill="#7A5E2F"/>
<defs>
<clipPath id="clip0_2230_427">
<rect width="19.116" height="29.316" fill="white" transform="translate(180 92)"/>
</clipPath>
<clipPath id="clip1_2230_427">
<rect width="15.528" height="12.3" fill="white" transform="translate(296 156)"/>
</clipPath>
<clipPath id="clip2_2230_427">
<rect width="13.308" height="17.568" fill="white" transform="translate(142 10)"/>
</clipPath>
<clipPath id="clip3_2230_427">
<rect width="20.388" height="29.484" fill="white" transform="translate(164 263)"/>
</clipPath>
<clipPath id="clip4_2230_427">
<rect width="24.108" height="29.484" fill="white" transform="translate(154 54)"/>
</clipPath>
</defs>
</svg>
