<svg width="394" height="485" viewBox="0 0 394 485" fill="none" xmlns="http://www.w3.org/2000/svg">
<rect width="394" height="485" fill="white"/>
<path d="M54.7953 242.348C54.6 242.543 54.6 242.86 54.7953 243.055L57.9772 246.237C58.1725 246.432 58.4891 246.432 58.6843 246.237C58.8796 246.042 58.8796 245.725 58.6843 245.53L55.8559 242.701L58.6843 239.873C58.8796 239.678 58.8796 239.361 58.6843 239.166C58.4891 238.97 58.1725 238.97 57.9772 239.166L54.7953 242.348ZM342.146 243.055C342.341 242.86 342.341 242.543 342.146 242.348L338.964 239.166C338.769 238.97 338.452 238.97 338.257 239.166C338.062 239.361 338.062 239.678 338.257 239.873L341.085 242.701L338.257 245.53C338.062 245.725 338.062 246.042 338.257 246.237C338.452 246.432 338.769 246.432 338.964 246.237L342.146 243.055ZM55.1488 243.201L341.792 243.201L341.792 242.201L55.1488 242.201L55.1488 243.201Z" fill="black"/>
<path d="M198.117 436.665C198.312 436.86 198.629 436.86 198.824 436.665L202.006 433.483C202.201 433.288 202.201 432.971 202.006 432.776C201.811 432.581 201.494 432.581 201.299 432.776L198.471 435.604L195.642 432.776C195.447 432.581 195.13 432.581 194.935 432.776C194.74 432.971 194.74 433.288 194.935 433.483L198.117 436.665ZM198.824 48.7375C198.629 48.5423 198.312 48.5423 198.117 48.7375L194.935 51.9195C194.74 52.1148 194.74 52.4314 194.935 52.6266C195.13 52.8219 195.447 52.8219 195.642 52.6266L198.471 49.7982L201.299 52.6266C201.494 52.8219 201.811 52.8219 202.006 52.6266C202.201 52.4314 202.201 52.1148 202.006 51.9195L198.824 48.7375ZM198.971 436.311L198.971 49.0911L197.971 49.0911L197.971 436.311L198.971 436.311Z" fill="black"/>
<path d="M192.842 36V23.5107H195.092L200.022 33.3018L200.726 34.7432V23.5107H202.123V36H199.873L194.942 26.209L194.239 24.7676V36H192.842Z" fill="black"/>
<path d="M193.799 458.156L194.071 456.662C195.331 457.658 196.614 458.156 197.921 458.156C198.7 458.156 199.333 457.916 199.819 457.436C200.306 456.955 200.549 456.401 200.549 455.774C200.549 455.306 200.408 454.878 200.127 454.491C199.846 454.099 199.471 453.809 199.002 453.621C198.979 453.609 198.234 453.41 196.77 453.023C196.037 452.83 195.393 452.438 194.836 451.846C194.279 451.254 194.001 450.524 194.001 449.657C194.001 448.731 194.376 447.911 195.126 447.196C195.876 446.476 196.854 446.115 198.062 446.115C199.192 446.115 200.291 446.402 201.357 446.977L201.111 448.471C200.607 448.084 200.139 447.797 199.705 447.609C199.271 447.416 198.718 447.319 198.044 447.319C197.265 447.319 196.635 447.533 196.154 447.961C195.674 448.383 195.434 448.878 195.434 449.446C195.434 449.868 195.568 450.252 195.838 450.598C196.113 450.943 196.459 451.201 196.875 451.371C197.045 451.441 197.481 451.562 198.185 451.731C198.888 451.896 199.354 452.027 199.582 452.127C200.244 452.402 200.81 452.845 201.278 453.454C201.753 454.058 201.99 454.772 201.99 455.599C201.99 456.618 201.609 457.506 200.848 458.262C200.086 459.018 199.11 459.396 197.921 459.396C196.479 459.396 195.105 458.982 193.799 458.156Z" fill="black"/>
<path d="M32.3662 241.786C32.3662 239.929 32.9199 238.353 34.0273 237.058C35.1406 235.763 36.4648 235.115 38 235.115C39.5117 235.115 40.8213 235.763 41.9287 237.058C43.042 238.353 43.5986 239.929 43.5986 241.786C43.5986 243.673 43.0361 245.246 41.9111 246.506C40.792 247.766 39.4824 248.396 37.9824 248.396C36.4707 248.396 35.1553 247.763 34.0361 246.497C32.9229 245.226 32.3662 243.655 32.3662 241.786ZM35.1699 237.726C34.3789 238.692 33.9834 239.964 33.9834 241.54C33.9834 243.11 34.3555 244.452 35.0996 245.565C35.8438 246.673 36.8047 247.227 37.9824 247.227C39.125 247.227 40.0771 246.679 40.8389 245.583C41.6064 244.481 41.9902 243.134 41.9902 241.54C41.9902 239.97 41.5947 238.698 40.8037 237.726C40.0127 236.753 39.0723 236.267 37.9824 236.267C36.9043 236.267 35.9668 236.753 35.1699 237.726Z" fill="black"/>
<path d="M353.826 248V235.563H361.868V236.75H360.84L360.392 236.732H356.076L355.443 236.715V240.978H361.385V242.076H355.443V246.743H356.973L357.403 246.726H360.893L361.288 246.708H362.123V248H353.826Z" fill="black"/>
<path d="M198.65 241.224C198.374 241.703 198.538 242.314 199.016 242.59C199.495 242.867 200.106 242.703 200.382 242.224L198.65 241.224ZM317.016 38.2085L307.016 43.982L317.016 49.7555L317.016 38.2085ZM200.382 242.224L313.382 46.5027L311.65 45.5027L198.65 241.224L200.382 242.224Z" fill="black"/>
<path d="M242.134 164.982C242.4 164.908 242.556 164.632 242.482 164.366L241.275 160.031C241.201 159.765 240.925 159.609 240.659 159.683C240.393 159.757 240.237 160.033 240.312 160.299L241.384 164.152L237.531 165.225C237.265 165.299 237.109 165.575 237.183 165.841C237.257 166.107 237.533 166.263 237.799 166.188L242.134 164.982ZM195.833 153.5C195.833 154.973 197.027 156.167 198.5 156.167C199.973 156.167 201.167 154.973 201.167 153.5C201.167 152.027 199.973 150.833 198.5 150.833C197.027 150.833 195.833 152.027 195.833 153.5ZM242.246 164.065C228.763 156.454 213.961 153.07 198.502 153L198.498 154C213.81 154.07 228.44 157.42 241.754 164.935L242.246 164.065Z" fill="#ACACAC"/>
<path d="M97.6133 110.379L97.8281 109.158C98.2578 109.731 98.7624 110.187 99.3418 110.525C99.9212 110.857 100.377 111.053 100.709 111.111C101.048 111.17 101.37 111.199 101.676 111.199C102.411 111.199 103.004 110.932 103.453 110.398C103.909 109.865 104.137 109.184 104.137 108.357C104.137 107.583 103.919 106.919 103.482 106.365C103.046 105.812 102.408 105.535 101.568 105.535H100.113V104.305C100.432 104.279 100.709 104.256 100.943 104.236C101.178 104.21 101.327 104.194 101.393 104.188C101.458 104.181 101.51 104.178 101.549 104.178C102.187 104.061 102.711 103.742 103.121 103.221C103.531 102.7 103.736 102.127 103.736 101.502C103.736 100.942 103.548 100.493 103.17 100.154C102.799 99.8092 102.314 99.6367 101.715 99.6367C100.543 99.6367 99.6152 100.138 98.9316 101.141C98.8535 101.258 98.7461 101.45 98.6094 101.717L97.8965 100.623C98.8145 99.1712 100.1 98.4421 101.754 98.4355C102.77 98.4355 103.626 98.7383 104.322 99.3438C105.025 99.9427 105.377 100.662 105.377 101.502C105.377 102.941 104.635 104.08 103.15 104.92C104.068 105.239 104.762 105.714 105.23 106.346C105.699 106.971 105.934 107.654 105.934 108.396C105.934 109.477 105.53 110.421 104.723 111.229C103.915 112.036 102.906 112.439 101.695 112.439C100.055 112.439 98.694 111.753 97.6133 110.379ZM107.613 105.799V105.457C107.613 104.936 107.623 104.484 107.643 104.1C107.662 103.715 107.724 103.208 107.828 102.576C107.939 101.938 108.085 101.398 108.268 100.955C108.456 100.506 108.743 100.066 109.127 99.6367C109.518 99.2005 109.98 98.8815 110.514 98.6797C110.924 98.5169 111.344 98.4355 111.773 98.4355C112.145 98.4355 112.503 98.4876 112.848 98.5918C113.199 98.6895 113.567 98.888 113.951 99.1875C114.342 99.487 114.68 99.8711 114.967 100.34C115.253 100.809 115.488 101.453 115.67 102.273C115.859 103.094 115.953 104.035 115.953 105.096V105.516C115.953 106.023 115.943 106.479 115.924 106.883C115.904 107.28 115.839 107.788 115.729 108.406C115.624 109.018 115.475 109.549 115.279 109.998C115.09 110.441 114.801 110.874 114.41 111.297C114.026 111.714 113.567 112.023 113.033 112.225C112.59 112.374 112.171 112.446 111.773 112.439C111.402 112.439 111.044 112.391 110.699 112.293C110.361 112.202 109.993 112.013 109.596 111.727C109.205 111.44 108.87 111.066 108.59 110.604C108.31 110.135 108.076 109.487 107.887 108.66C107.704 107.833 107.613 106.88 107.613 105.799ZM109.176 105.799C109.176 106.691 109.234 107.475 109.352 108.152C109.475 108.823 109.622 109.35 109.791 109.734C109.967 110.112 110.178 110.418 110.426 110.652C110.673 110.887 110.901 111.04 111.109 111.111C111.324 111.183 111.552 111.219 111.793 111.219C112.099 111.219 112.385 111.15 112.652 111.014C112.919 110.87 113.193 110.623 113.473 110.271C113.753 109.92 113.974 109.36 114.137 108.592C114.306 107.824 114.391 106.886 114.391 105.779V104.598C114.391 103.582 114.306 102.729 114.137 102.039C113.974 101.349 113.749 100.844 113.463 100.525C113.176 100.2 112.9 99.9785 112.633 99.8613C112.366 99.7376 112.079 99.6758 111.773 99.6758C111.467 99.6758 111.181 99.7376 110.914 99.8613C110.647 99.9785 110.374 100.2 110.094 100.525C109.814 100.844 109.589 101.355 109.42 102.059C109.257 102.755 109.176 103.602 109.176 104.598V105.799ZM117.896 100.34C117.896 99.7279 118.111 99.207 118.541 98.7773C118.977 98.3411 119.501 98.123 120.113 98.123C120.738 98.123 121.262 98.3477 121.686 98.7969C122.115 99.2396 122.33 99.7539 122.33 100.34C122.33 100.952 122.112 101.476 121.676 101.912C121.246 102.342 120.725 102.557 120.113 102.557C119.488 102.557 118.961 102.335 118.531 101.893C118.108 101.443 117.896 100.926 117.896 100.34ZM118.697 100.34C118.697 100.711 118.827 101.036 119.088 101.316C119.355 101.596 119.697 101.736 120.113 101.736C120.497 101.736 120.826 101.603 121.1 101.336C121.373 101.069 121.51 100.737 121.51 100.34C121.51 99.9688 121.376 99.64 121.109 99.3535C120.842 99.0671 120.51 98.9238 120.113 98.9238C119.729 98.9238 119.397 99.0605 119.117 99.334C118.837 99.6074 118.697 99.9427 118.697 100.34ZM130.816 107.576C130.816 106.255 131.161 105.141 131.852 104.236C132.548 103.331 133.388 102.879 134.371 102.879C135.387 102.879 136.354 103.247 137.271 103.982V97.5566H138.795V112H137.213V110.965C136.347 111.805 135.361 112.225 134.254 112.225C133.264 112.225 132.444 111.759 131.793 110.828C131.142 109.897 130.816 108.813 130.816 107.576ZM132.369 107.557C132.369 108.742 132.649 109.611 133.209 110.164C133.769 110.711 134.391 110.984 135.074 110.984C135.634 110.984 136.129 110.796 136.559 110.418C136.995 110.034 137.213 109.669 137.213 109.324V105.496C137.213 105.242 137.073 104.985 136.793 104.725C136.363 104.327 135.868 104.126 135.309 104.119H135.27C134.951 104.119 134.635 104.181 134.322 104.305C134.01 104.422 133.701 104.604 133.395 104.852C133.089 105.099 132.841 105.457 132.652 105.926C132.464 106.388 132.369 106.932 132.369 107.557ZM141.129 107.479C141.129 106.157 141.529 105.044 142.33 104.139C143.137 103.234 144.081 102.781 145.162 102.781C145.559 102.781 145.937 102.846 146.295 102.977C146.66 103.1 147.024 103.309 147.389 103.602C147.76 103.895 148.066 104.334 148.307 104.92C148.548 105.506 148.688 106.206 148.727 107.02V107.596H142.525C142.564 108.598 142.87 109.415 143.443 110.047C144.016 110.672 144.697 110.984 145.484 110.984C146.5 110.984 147.512 110.617 148.521 109.881L148.648 111.199C147.633 111.876 146.578 112.218 145.484 112.225C144.215 112.225 143.17 111.756 142.35 110.818C141.536 109.874 141.129 108.761 141.129 107.479ZM142.623 106.502H147.584C147.506 105.981 147.363 105.542 147.154 105.184C146.946 104.819 146.712 104.562 146.451 104.412C146.191 104.256 145.956 104.152 145.748 104.1C145.546 104.048 145.351 104.021 145.162 104.021C144.485 104.021 143.925 104.282 143.482 104.803C143.04 105.324 142.753 105.89 142.623 106.502ZM149.869 111.316L150.113 109.959C150.139 109.972 150.224 110.024 150.367 110.115C150.517 110.2 150.628 110.262 150.699 110.301C150.777 110.34 150.898 110.402 151.061 110.486C151.23 110.564 151.383 110.626 151.52 110.672C151.663 110.717 151.826 110.766 152.008 110.818C152.197 110.87 152.395 110.91 152.604 110.936C152.812 110.955 153.027 110.965 153.248 110.965C153.912 110.965 154.387 110.825 154.674 110.545C154.967 110.258 155.113 109.943 155.113 109.598C155.113 109.266 154.993 108.989 154.752 108.768C154.511 108.546 154.257 108.396 153.99 108.318C153.86 108.279 153.564 108.214 153.102 108.123C152.639 108.025 152.298 107.944 152.076 107.879C151.529 107.703 151.044 107.407 150.621 106.99C150.204 106.567 149.996 106.043 149.996 105.418C149.996 105.112 150.042 104.822 150.133 104.549C150.224 104.275 150.38 103.995 150.602 103.709C150.823 103.423 151.161 103.198 151.617 103.035C152.079 102.866 152.63 102.781 153.268 102.781C154.225 102.781 155.198 102.986 156.188 103.396L155.973 104.725C155.96 104.712 155.882 104.676 155.738 104.617C155.602 104.552 155.523 104.513 155.504 104.5C155.484 104.487 155.41 104.454 155.279 104.402C155.156 104.35 155.068 104.318 155.016 104.305C154.97 104.285 154.889 104.253 154.771 104.207C154.654 104.161 154.56 104.135 154.488 104.129C154.423 104.122 154.326 104.103 154.195 104.07C154.072 104.038 153.961 104.018 153.863 104.012C153.766 104.005 153.648 103.999 153.512 103.992C153.382 103.986 153.242 103.982 153.092 103.982C152.48 103.982 152.047 104.106 151.793 104.354C151.539 104.601 151.412 104.884 151.412 105.203C151.412 105.646 151.588 105.965 151.939 106.16C152.298 106.349 152.796 106.499 153.434 106.609C154.072 106.72 154.524 106.837 154.791 106.961C155.273 107.176 155.683 107.498 156.021 107.928C156.36 108.351 156.529 108.862 156.529 109.461C156.529 109.767 156.484 110.066 156.393 110.359C156.301 110.652 156.145 110.945 155.924 111.238C155.702 111.531 155.361 111.769 154.898 111.951C154.443 112.133 153.899 112.225 153.268 112.225C152.096 112.218 150.963 111.915 149.869 111.316ZM157.691 107.576C157.691 106.255 158.036 105.141 158.727 104.236C159.423 103.331 160.263 102.879 161.246 102.879C162.262 102.879 163.229 103.247 164.146 103.982V97.5566H165.67V112H164.088V110.965C163.222 111.805 162.236 112.225 161.129 112.225C160.139 112.225 159.319 111.759 158.668 110.828C158.017 109.897 157.691 108.813 157.691 107.576ZM159.244 107.557C159.244 108.742 159.524 109.611 160.084 110.164C160.644 110.711 161.266 110.984 161.949 110.984C162.509 110.984 163.004 110.796 163.434 110.418C163.87 110.034 164.088 109.669 164.088 109.324V105.496C164.088 105.242 163.948 104.985 163.668 104.725C163.238 104.327 162.743 104.126 162.184 104.119H162.145C161.826 104.119 161.51 104.181 161.197 104.305C160.885 104.422 160.576 104.604 160.27 104.852C159.964 105.099 159.716 105.457 159.527 105.926C159.339 106.388 159.244 106.932 159.244 107.557ZM168.004 107.479C168.004 106.157 168.404 105.044 169.205 104.139C170.012 103.234 170.956 102.781 172.037 102.781C172.434 102.781 172.812 102.846 173.17 102.977C173.535 103.1 173.899 103.309 174.264 103.602C174.635 103.895 174.941 104.334 175.182 104.92C175.423 105.506 175.562 106.206 175.602 107.02V107.596H169.4C169.439 108.598 169.745 109.415 170.318 110.047C170.891 110.672 171.572 110.984 172.359 110.984C173.375 110.984 174.387 110.617 175.396 109.881L175.523 111.199C174.508 111.876 173.453 112.218 172.359 112.225C171.09 112.225 170.045 111.756 169.225 110.818C168.411 109.874 168.004 108.761 168.004 107.479ZM169.498 106.502H174.459C174.381 105.981 174.238 105.542 174.029 105.184C173.821 104.819 173.587 104.562 173.326 104.412C173.066 104.256 172.831 104.152 172.623 104.1C172.421 104.048 172.226 104.021 172.037 104.021C171.36 104.021 170.8 104.282 170.357 104.803C169.915 105.324 169.628 105.89 169.498 106.502ZM103.736 133.479C103.736 132.157 104.137 131.044 104.938 130.139C105.745 129.234 106.689 128.781 107.77 128.781C108.167 128.781 108.544 128.846 108.902 128.977C109.267 129.1 109.632 129.309 109.996 129.602C110.367 129.895 110.673 130.334 110.914 130.92C111.155 131.506 111.295 132.206 111.334 133.02V133.596H105.133C105.172 134.598 105.478 135.415 106.051 136.047C106.624 136.672 107.304 136.984 108.092 136.984C109.107 136.984 110.12 136.617 111.129 135.881L111.256 137.199C110.24 137.876 109.186 138.218 108.092 138.225C106.822 138.225 105.777 137.756 104.957 136.818C104.143 135.874 103.736 134.761 103.736 133.479ZM105.23 132.502H110.191C110.113 131.981 109.97 131.542 109.762 131.184C109.553 130.819 109.319 130.562 109.059 130.412C108.798 130.256 108.564 130.152 108.355 130.1C108.154 130.048 107.958 130.021 107.77 130.021C107.092 130.021 106.533 130.282 106.09 130.803C105.647 131.324 105.361 131.89 105.23 132.502ZM113.561 138V123.557H115.055V138H113.561ZM125.289 138V124.123H127.789L133.268 135.002L134.049 136.604V124.123H135.602V138H133.102L127.623 127.121L126.842 125.52V138H125.289ZM138.141 133.576C138.141 132.229 138.57 131.092 139.43 130.168C140.296 129.243 141.327 128.781 142.525 128.781C143.782 128.781 144.83 129.266 145.67 130.236C146.51 131.2 146.93 132.32 146.93 133.596C146.93 134.917 146.487 136.021 145.602 136.906C144.723 137.785 143.697 138.225 142.525 138.225C141.354 138.225 140.328 137.782 139.449 136.896C138.577 136.005 138.141 134.898 138.141 133.576ZM139.703 133.381C139.703 134.553 139.986 135.438 140.553 136.037C141.119 136.636 141.777 136.936 142.525 136.936C143.274 136.936 143.932 136.633 144.498 136.027C145.064 135.422 145.348 134.54 145.348 133.381C145.348 132.261 145.064 131.421 144.498 130.861C143.932 130.301 143.274 130.021 142.525 130.021C141.79 130.021 141.135 130.301 140.562 130.861C139.99 131.421 139.703 132.261 139.703 133.381ZM148.619 138V128.996H150.016V130.803C150.178 130.549 150.37 130.305 150.592 130.07C150.82 129.836 151.204 129.585 151.744 129.318C152.285 129.051 152.877 128.911 153.521 128.898V130.236C153.176 130.249 152.828 130.314 152.477 130.432C152.132 130.542 151.767 130.721 151.383 130.969C151.005 131.216 150.699 131.594 150.465 132.102C150.23 132.609 150.113 133.202 150.113 133.879V138H148.619ZM154.195 130.275V129.104H155.914V126.584H157.311V129.104H160.133V130.275H157.311V135.197C157.311 136.356 157.672 136.936 158.395 136.936C158.954 136.936 159.54 136.717 160.152 136.281L160.475 137.463C159.531 137.971 158.544 138.225 157.516 138.225C156.422 138.225 155.875 137.368 155.875 135.656V130.275H154.195ZM161.744 133.479C161.744 132.157 162.145 131.044 162.945 130.139C163.753 129.234 164.697 128.781 165.777 128.781C166.174 128.781 166.552 128.846 166.91 128.977C167.275 129.1 167.639 129.309 168.004 129.602C168.375 129.895 168.681 130.334 168.922 130.92C169.163 131.506 169.303 132.206 169.342 133.02V133.596H163.141C163.18 134.598 163.486 135.415 164.059 136.047C164.632 136.672 165.312 136.984 166.1 136.984C167.115 136.984 168.128 136.617 169.137 135.881L169.264 137.199C168.248 137.876 167.193 138.218 166.1 138.225C164.83 138.225 163.785 137.756 162.965 136.818C162.151 135.874 161.744 134.761 161.744 133.479ZM163.238 132.502H168.199C168.121 131.981 167.978 131.542 167.77 131.184C167.561 130.819 167.327 130.562 167.066 130.412C166.806 130.256 166.572 130.152 166.363 130.1C166.161 130.048 165.966 130.021 165.777 130.021C165.1 130.021 164.54 130.282 164.098 130.803C163.655 131.324 163.368 131.89 163.238 132.502ZM106.324 164V149.557H107.818V156.324C108.619 155.38 109.579 154.905 110.699 154.898C111.207 154.898 111.64 154.98 111.998 155.143C112.363 155.299 112.633 155.488 112.809 155.709C112.991 155.93 113.131 156.21 113.229 156.549C113.333 156.887 113.395 157.174 113.414 157.408C113.434 157.643 113.443 157.919 113.443 158.238V164H111.881V158.385C111.881 158.157 111.878 157.978 111.871 157.848C111.865 157.711 111.826 157.519 111.754 157.271C111.682 157.024 111.581 156.829 111.451 156.686C111.327 156.536 111.135 156.406 110.875 156.295C110.615 156.178 110.296 156.119 109.918 156.119C109.208 156.119 108.691 156.419 108.365 157.018C108.046 157.617 107.887 158.342 107.887 159.195V164H106.324ZM115.934 161.744C115.934 161.249 116.119 160.82 116.49 160.455C116.868 160.084 117.359 159.811 117.965 159.635C118.57 159.452 119.163 159.319 119.742 159.234C120.322 159.143 120.904 159.098 121.49 159.098V158.424C121.464 157.571 121.292 156.956 120.973 156.578C120.641 156.181 120.221 155.982 119.713 155.982C118.684 155.982 117.685 156.321 116.715 156.998L116.598 155.66C117.6 155.074 118.645 154.781 119.732 154.781C120.65 154.781 121.419 155.084 122.037 155.689C122.662 156.295 123.001 157.031 123.053 157.896V164H121.539V163.297C121.487 163.349 121.363 163.437 121.168 163.561C120.973 163.678 120.595 163.818 120.035 163.98C119.475 164.143 118.87 164.225 118.219 164.225C117.457 164.225 116.884 163.954 116.5 163.414C116.122 162.874 115.934 162.317 115.934 161.744ZM117.398 161.725C117.398 162.083 117.574 162.382 117.926 162.623C118.277 162.864 118.72 162.984 119.254 162.984C119.827 162.984 120.341 162.864 120.797 162.623C121.259 162.382 121.49 161.975 121.49 161.402V160.143C121.08 160.143 120.66 160.169 120.23 160.221C119.807 160.273 119.368 160.354 118.912 160.465C118.463 160.569 118.098 160.732 117.818 160.953C117.538 161.174 117.398 161.432 117.398 161.725ZM125.367 159.537C125.367 158.3 125.764 157.2 126.559 156.236C127.359 155.266 128.427 154.781 129.762 154.781C130.387 154.781 130.904 154.843 131.314 154.967C131.731 155.084 132.249 155.315 132.867 155.66L132.623 156.979C131.972 156.568 131.474 156.314 131.129 156.217C130.745 156.113 130.283 156.061 129.742 156.061C128.837 156.061 128.141 156.406 127.652 157.096C127.164 157.779 126.92 158.593 126.92 159.537C126.92 160.527 127.18 161.34 127.701 161.979C128.222 162.617 128.896 162.936 129.723 162.936C130.764 162.936 131.812 162.577 132.867 161.861L132.965 163.199C131.91 163.876 130.823 164.218 129.703 164.225C128.479 164.225 127.451 163.769 126.617 162.857C125.784 161.939 125.367 160.833 125.367 159.537ZM135.035 152.203V150.416H136.832V152.203H135.035ZM135.172 164V155.104H136.666V164H135.172ZM139.215 161.744C139.215 161.249 139.4 160.82 139.771 160.455C140.149 160.084 140.641 159.811 141.246 159.635C141.852 159.452 142.444 159.319 143.023 159.234C143.603 159.143 144.186 159.098 144.771 159.098V158.424C144.745 157.571 144.573 156.956 144.254 156.578C143.922 156.181 143.502 155.982 142.994 155.982C141.965 155.982 140.966 156.321 139.996 156.998L139.879 155.66C140.882 155.074 141.926 154.781 143.014 154.781C143.932 154.781 144.7 155.084 145.318 155.689C145.943 156.295 146.282 157.031 146.334 157.896V164H144.82V163.297C144.768 163.349 144.645 163.437 144.449 163.561C144.254 163.678 143.876 163.818 143.316 163.98C142.757 164.143 142.151 164.225 141.5 164.225C140.738 164.225 140.165 163.954 139.781 163.414C139.404 162.874 139.215 162.317 139.215 161.744ZM140.68 161.725C140.68 162.083 140.855 162.382 141.207 162.623C141.559 162.864 142.001 162.984 142.535 162.984C143.108 162.984 143.622 162.864 144.078 162.623C144.54 162.382 144.771 161.975 144.771 161.402V160.143C144.361 160.143 143.941 160.169 143.512 160.221C143.089 160.273 142.649 160.354 142.193 160.465C141.744 160.569 141.38 160.732 141.1 160.953C140.82 161.174 140.68 161.432 140.68 161.725ZM155.289 159.479C155.289 158.157 155.689 157.044 156.49 156.139C157.298 155.234 158.242 154.781 159.322 154.781C159.719 154.781 160.097 154.846 160.455 154.977C160.82 155.1 161.184 155.309 161.549 155.602C161.92 155.895 162.226 156.334 162.467 156.92C162.708 157.506 162.848 158.206 162.887 159.02V159.596H156.686C156.725 160.598 157.031 161.415 157.604 162.047C158.176 162.672 158.857 162.984 159.645 162.984C160.66 162.984 161.673 162.617 162.682 161.881L162.809 163.199C161.793 163.876 160.738 164.218 159.645 164.225C158.375 164.225 157.33 163.756 156.51 162.818C155.696 161.874 155.289 160.761 155.289 159.479ZM156.783 158.502H161.744C161.666 157.981 161.523 157.542 161.314 157.184C161.106 156.819 160.872 156.562 160.611 156.412C160.351 156.256 160.117 156.152 159.908 156.1C159.706 156.048 159.511 156.021 159.322 156.021C158.645 156.021 158.085 156.282 157.643 156.803C157.2 157.324 156.913 157.89 156.783 158.502ZM165.113 164V149.557H166.607V164H165.113ZM120.533 190V176.182H129.469V177.5H128.326L127.828 177.48H123.033L122.33 177.461V182.197H128.932V183.418H122.33V188.604H124.029L124.508 188.584H128.385L128.824 188.564H129.752V190H120.533ZM131.119 189.316L131.363 187.959C131.389 187.972 131.474 188.024 131.617 188.115C131.767 188.2 131.878 188.262 131.949 188.301C132.027 188.34 132.148 188.402 132.311 188.486C132.48 188.564 132.633 188.626 132.77 188.672C132.913 188.717 133.076 188.766 133.258 188.818C133.447 188.87 133.645 188.91 133.854 188.936C134.062 188.955 134.277 188.965 134.498 188.965C135.162 188.965 135.637 188.825 135.924 188.545C136.217 188.258 136.363 187.943 136.363 187.598C136.363 187.266 136.243 186.989 136.002 186.768C135.761 186.546 135.507 186.396 135.24 186.318C135.11 186.279 134.814 186.214 134.352 186.123C133.889 186.025 133.548 185.944 133.326 185.879C132.779 185.703 132.294 185.407 131.871 184.99C131.454 184.567 131.246 184.043 131.246 183.418C131.246 183.112 131.292 182.822 131.383 182.549C131.474 182.275 131.63 181.995 131.852 181.709C132.073 181.423 132.411 181.198 132.867 181.035C133.329 180.866 133.88 180.781 134.518 180.781C135.475 180.781 136.448 180.986 137.438 181.396L137.223 182.725C137.21 182.712 137.132 182.676 136.988 182.617C136.852 182.552 136.773 182.513 136.754 182.5C136.734 182.487 136.66 182.454 136.529 182.402C136.406 182.35 136.318 182.318 136.266 182.305C136.22 182.285 136.139 182.253 136.021 182.207C135.904 182.161 135.81 182.135 135.738 182.129C135.673 182.122 135.576 182.103 135.445 182.07C135.322 182.038 135.211 182.018 135.113 182.012C135.016 182.005 134.898 181.999 134.762 181.992C134.632 181.986 134.492 181.982 134.342 181.982C133.73 181.982 133.297 182.106 133.043 182.354C132.789 182.601 132.662 182.884 132.662 183.203C132.662 183.646 132.838 183.965 133.189 184.16C133.548 184.349 134.046 184.499 134.684 184.609C135.322 184.72 135.774 184.837 136.041 184.961C136.523 185.176 136.933 185.498 137.271 185.928C137.61 186.351 137.779 186.862 137.779 187.461C137.779 187.767 137.734 188.066 137.643 188.359C137.551 188.652 137.395 188.945 137.174 189.238C136.952 189.531 136.611 189.769 136.148 189.951C135.693 190.133 135.149 190.225 134.518 190.225C133.346 190.218 132.213 189.915 131.119 189.316ZM138.6 182.275V181.104H140.318V178.584H141.715V181.104H144.537V182.275H141.715V187.197C141.715 188.356 142.076 188.936 142.799 188.936C143.359 188.936 143.945 188.717 144.557 188.281L144.879 189.463C143.935 189.971 142.949 190.225 141.92 190.225C140.826 190.225 140.279 189.368 140.279 187.656V182.275H138.6ZM146.148 185.479C146.148 184.157 146.549 183.044 147.35 182.139C148.157 181.234 149.101 180.781 150.182 180.781C150.579 180.781 150.956 180.846 151.314 180.977C151.679 181.1 152.044 181.309 152.408 181.602C152.779 181.895 153.085 182.334 153.326 182.92C153.567 183.506 153.707 184.206 153.746 185.02V185.596H147.545C147.584 186.598 147.89 187.415 148.463 188.047C149.036 188.672 149.716 188.984 150.504 188.984C151.52 188.984 152.532 188.617 153.541 187.881L153.668 189.199C152.652 189.876 151.598 190.218 150.504 190.225C149.234 190.225 148.189 189.756 147.369 188.818C146.555 187.874 146.148 186.761 146.148 185.479ZM147.643 184.502H152.604C152.525 183.981 152.382 183.542 152.174 183.184C151.965 182.819 151.731 182.562 151.471 182.412C151.21 182.256 150.976 182.152 150.768 182.1C150.566 182.048 150.37 182.021 150.182 182.021C149.505 182.021 148.945 182.282 148.502 182.803C148.059 183.324 147.773 183.89 147.643 184.502Z" fill="black"/>
<path d="M202.613 117.379L202.828 116.158C203.258 116.731 203.762 117.187 204.342 117.525C204.921 117.857 205.377 118.053 205.709 118.111C206.048 118.17 206.37 118.199 206.676 118.199C207.411 118.199 208.004 117.932 208.453 117.398C208.909 116.865 209.137 116.184 209.137 115.357C209.137 114.583 208.919 113.919 208.482 113.365C208.046 112.812 207.408 112.535 206.568 112.535H205.113V111.305C205.432 111.279 205.709 111.256 205.943 111.236C206.178 111.21 206.327 111.194 206.393 111.187C206.458 111.181 206.51 111.178 206.549 111.178C207.187 111.06 207.711 110.741 208.121 110.221C208.531 109.7 208.736 109.127 208.736 108.502C208.736 107.942 208.548 107.493 208.17 107.154C207.799 106.809 207.314 106.637 206.715 106.637C205.543 106.637 204.615 107.138 203.932 108.141C203.854 108.258 203.746 108.45 203.609 108.717L202.896 107.623C203.814 106.171 205.1 105.442 206.754 105.435C207.77 105.435 208.626 105.738 209.322 106.344C210.025 106.943 210.377 107.662 210.377 108.502C210.377 109.941 209.635 111.08 208.15 111.92C209.068 112.239 209.762 112.714 210.23 113.346C210.699 113.971 210.934 114.654 210.934 115.396C210.934 116.477 210.53 117.421 209.723 118.228C208.915 119.036 207.906 119.439 206.695 119.439C205.055 119.439 203.694 118.753 202.613 117.379ZM212.613 112.799V112.457C212.613 111.936 212.623 111.484 212.643 111.1C212.662 110.715 212.724 110.208 212.828 109.576C212.939 108.938 213.085 108.398 213.268 107.955C213.456 107.506 213.743 107.066 214.127 106.637C214.518 106.2 214.98 105.881 215.514 105.68C215.924 105.517 216.344 105.435 216.773 105.435C217.145 105.435 217.503 105.488 217.848 105.592C218.199 105.689 218.567 105.888 218.951 106.187C219.342 106.487 219.68 106.871 219.967 107.34C220.253 107.809 220.488 108.453 220.67 109.273C220.859 110.094 220.953 111.034 220.953 112.096V112.516C220.953 113.023 220.943 113.479 220.924 113.883C220.904 114.28 220.839 114.788 220.729 115.406C220.624 116.018 220.475 116.549 220.279 116.998C220.09 117.441 219.801 117.874 219.41 118.297C219.026 118.713 218.567 119.023 218.033 119.225C217.59 119.374 217.171 119.446 216.773 119.439C216.402 119.439 216.044 119.391 215.699 119.293C215.361 119.202 214.993 119.013 214.596 118.727C214.205 118.44 213.87 118.066 213.59 117.603C213.31 117.135 213.076 116.487 212.887 115.66C212.704 114.833 212.613 113.879 212.613 112.799ZM214.176 112.799C214.176 113.691 214.234 114.475 214.352 115.152C214.475 115.823 214.622 116.35 214.791 116.734C214.967 117.112 215.178 117.418 215.426 117.652C215.673 117.887 215.901 118.04 216.109 118.111C216.324 118.183 216.552 118.219 216.793 118.219C217.099 118.219 217.385 118.15 217.652 118.014C217.919 117.87 218.193 117.623 218.473 117.271C218.753 116.92 218.974 116.36 219.137 115.592C219.306 114.824 219.391 113.886 219.391 112.779V111.598C219.391 110.582 219.306 109.729 219.137 109.039C218.974 108.349 218.749 107.844 218.463 107.525C218.176 107.2 217.9 106.978 217.633 106.861C217.366 106.738 217.079 106.676 216.773 106.676C216.467 106.676 216.181 106.738 215.914 106.861C215.647 106.978 215.374 107.2 215.094 107.525C214.814 107.844 214.589 108.355 214.42 109.059C214.257 109.755 214.176 110.602 214.176 111.598V112.799ZM222.896 107.34C222.896 106.728 223.111 106.207 223.541 105.777C223.977 105.341 224.501 105.123 225.113 105.123C225.738 105.123 226.262 105.348 226.686 105.797C227.115 106.24 227.33 106.754 227.33 107.34C227.33 107.952 227.112 108.476 226.676 108.912C226.246 109.342 225.725 109.557 225.113 109.557C224.488 109.557 223.961 109.335 223.531 108.893C223.108 108.443 222.896 107.926 222.896 107.34ZM223.697 107.34C223.697 107.711 223.827 108.036 224.088 108.316C224.355 108.596 224.697 108.736 225.113 108.736C225.497 108.736 225.826 108.603 226.1 108.336C226.373 108.069 226.51 107.737 226.51 107.34C226.51 106.969 226.376 106.64 226.109 106.353C225.842 106.067 225.51 105.924 225.113 105.924C224.729 105.924 224.397 106.06 224.117 106.334C223.837 106.607 223.697 106.943 223.697 107.34ZM237.018 119V105.123H239.518L244.996 116.002L245.777 117.603V105.123H247.33V119H244.83L239.352 108.121L238.57 106.519V119H237.018ZM251.158 119V105.182H260.094V106.5H258.951L258.453 106.48H253.658L252.955 106.461V111.197H259.557V112.418H252.955V117.603H254.654L255.133 117.584H259.01L259.449 117.564H260.377V119H251.158Z" fill="black"/>
<path d="M300.01 186.535C300.01 184.537 300.514 182.854 301.523 181.486C302.539 180.119 303.815 179.436 305.352 179.436C306.042 179.436 306.755 179.569 307.49 179.836V181.037C306.728 180.757 306.016 180.617 305.352 180.617C304.577 180.617 303.903 180.887 303.33 181.428C302.757 181.968 302.35 182.583 302.109 183.273C301.868 183.957 301.728 184.667 301.689 185.402C302.1 184.882 302.604 184.478 303.203 184.191C303.809 183.905 304.43 183.762 305.068 183.762C305.947 183.762 306.673 184.169 307.246 184.982C307.956 185.972 308.311 187.15 308.311 188.518C308.311 189.996 307.852 191.223 306.934 192.199C306.159 193.026 305.251 193.44 304.209 193.44C303.838 193.44 303.473 193.384 303.115 193.273C302.764 193.169 302.393 192.964 302.002 192.658C301.618 192.352 301.283 191.958 300.996 191.477C300.71 190.988 300.472 190.321 300.283 189.475C300.101 188.622 300.01 187.642 300.01 186.535ZM301.709 188.596C301.963 190.998 302.79 192.199 304.189 192.199C304.867 192.199 305.4 191.971 305.791 191.516C306.188 191.053 306.449 190.542 306.572 189.982C306.637 189.69 306.67 189.244 306.67 188.645C306.67 187.486 306.484 186.61 306.113 186.018C305.671 185.328 305.062 184.982 304.287 184.982C303.538 184.982 302.923 185.285 302.441 185.891C301.966 186.496 301.728 187.219 301.728 188.059C301.728 188.176 301.742 188.355 301.768 188.596H301.709ZM309.99 186.799V186.457C309.99 185.936 310 185.484 310.02 185.1C310.039 184.716 310.101 184.208 310.205 183.576C310.316 182.938 310.462 182.398 310.645 181.955C310.833 181.506 311.12 181.066 311.504 180.637C311.895 180.201 312.357 179.882 312.891 179.68C313.301 179.517 313.721 179.436 314.15 179.436C314.521 179.436 314.88 179.488 315.225 179.592C315.576 179.69 315.944 179.888 316.328 180.188C316.719 180.487 317.057 180.871 317.344 181.34C317.63 181.809 317.865 182.453 318.047 183.273C318.236 184.094 318.33 185.035 318.33 186.096V186.516C318.33 187.023 318.32 187.479 318.301 187.883C318.281 188.28 318.216 188.788 318.105 189.406C318.001 190.018 317.852 190.549 317.656 190.998C317.467 191.441 317.178 191.874 316.787 192.297C316.403 192.714 315.944 193.023 315.41 193.225C314.967 193.374 314.547 193.446 314.15 193.44C313.779 193.44 313.421 193.391 313.076 193.293C312.738 193.202 312.37 193.013 311.973 192.727C311.582 192.44 311.247 192.066 310.967 191.604C310.687 191.135 310.452 190.487 310.264 189.66C310.081 188.833 309.99 187.88 309.99 186.799ZM311.553 186.799C311.553 187.691 311.611 188.475 311.728 189.152C311.852 189.823 311.999 190.35 312.168 190.734C312.344 191.112 312.555 191.418 312.803 191.652C313.05 191.887 313.278 192.04 313.486 192.111C313.701 192.183 313.929 192.219 314.17 192.219C314.476 192.219 314.762 192.15 315.029 192.014C315.296 191.871 315.57 191.623 315.85 191.272C316.13 190.92 316.351 190.36 316.514 189.592C316.683 188.824 316.768 187.886 316.768 186.779V185.598C316.768 184.582 316.683 183.729 316.514 183.039C316.351 182.349 316.126 181.844 315.84 181.525C315.553 181.2 315.277 180.979 315.01 180.861C314.743 180.738 314.456 180.676 314.15 180.676C313.844 180.676 313.558 180.738 313.291 180.861C313.024 180.979 312.751 181.2 312.471 181.525C312.191 181.844 311.966 182.356 311.797 183.059C311.634 183.755 311.553 184.602 311.553 185.598V186.799ZM320.273 181.34C320.273 180.728 320.488 180.207 320.918 179.777C321.354 179.341 321.878 179.123 322.49 179.123C323.115 179.123 323.639 179.348 324.062 179.797C324.492 180.24 324.707 180.754 324.707 181.34C324.707 181.952 324.489 182.476 324.053 182.912C323.623 183.342 323.102 183.557 322.49 183.557C321.865 183.557 321.338 183.335 320.908 182.893C320.485 182.443 320.273 181.926 320.273 181.34ZM321.074 181.34C321.074 181.711 321.204 182.037 321.465 182.316C321.732 182.596 322.074 182.736 322.49 182.736C322.874 182.736 323.203 182.603 323.477 182.336C323.75 182.069 323.887 181.737 323.887 181.34C323.887 180.969 323.753 180.64 323.486 180.354C323.219 180.067 322.887 179.924 322.49 179.924C322.106 179.924 321.774 180.061 321.494 180.334C321.214 180.607 321.074 180.943 321.074 181.34Z" fill="black"/>
<path d="M286.333 242.5C286.333 243.973 287.527 245.167 289 245.167C290.473 245.167 291.667 243.973 291.667 242.5C291.667 241.027 290.473 239.833 289 239.833C287.527 239.833 286.333 241.027 286.333 242.5ZM244.875 165.516C244.607 165.585 244.447 165.858 244.516 166.125L245.643 170.482C245.713 170.749 245.985 170.91 246.253 170.841C246.52 170.771 246.681 170.499 246.612 170.231L245.609 166.359L249.482 165.357C249.749 165.287 249.91 165.015 249.841 164.747C249.771 164.48 249.499 164.319 249.231 164.388L244.875 165.516ZM289.5 242.5C289.5 227.19 285.326 211.022 277.585 197.676L276.72 198.177C284.369 211.365 288.5 227.36 288.5 242.5H289.5ZM277.585 197.676C269.844 184.329 258.732 173.505 245.254 165.569L244.746 166.431C258.088 174.286 269.072 184.99 276.72 198.177L277.585 197.676Z" fill="#ACACAC"/>
</svg>
