<svg width="676" height="263" viewBox="0 0 676 263" fill="none" xmlns="http://www.w3.org/2000/svg">
<rect width="676" height="263" fill="white"/>
<path d="M399 28L376.031 25.5981L385.436 46.6906L399 28ZM242 98L242.814 99.8267L383.374 37.1566L382.56 35.3299L381.746 33.5033L241.186 96.1733L242 98Z" fill="black"/>
<g clip-path="url(#clip0_2340_176)">
<path d="M351.561 141.141C351.578 141.034 351.605 140.891 351.641 140.713C351.676 140.535 351.783 140.197 351.961 139.699C352.139 139.2 352.317 138.782 352.495 138.444C352.673 138.106 352.958 137.776 353.35 137.456C353.741 137.135 354.133 136.984 354.524 137.002C354.916 137.02 355.299 137.082 355.673 137.189C356.046 137.296 356.313 137.456 356.474 137.669C356.634 137.883 356.776 138.079 356.901 138.257C357.025 138.435 357.097 138.604 357.114 138.764L357.168 138.951C357.168 138.987 357.177 139.005 357.195 139.005L357.488 138.711C358.556 137.572 359.811 137.002 361.253 137.002C361.556 137.002 361.832 137.02 362.081 137.055C362.33 137.091 362.561 137.153 362.775 137.242C362.989 137.331 363.158 137.42 363.282 137.509C363.407 137.598 363.541 137.705 363.683 137.83C363.825 137.954 363.914 138.07 363.95 138.177C363.986 138.284 364.057 138.399 364.164 138.524C364.27 138.649 364.306 138.755 364.27 138.844C364.235 138.933 364.261 139.013 364.35 139.085C364.439 139.156 364.457 139.218 364.404 139.272L364.617 139.005C365.739 137.669 367.065 137.002 368.596 137.002C369.557 137.002 370.331 137.242 370.919 137.723C371.506 138.204 371.809 138.907 371.827 139.832C371.827 140.74 371.489 142.146 370.812 144.051C370.136 145.956 369.797 147.095 369.797 147.469C369.815 147.718 369.86 147.887 369.931 147.976C370.002 148.065 370.136 148.11 370.331 148.11C370.83 148.11 371.293 147.843 371.72 147.309C372.147 146.775 372.494 146.045 372.761 145.119C372.815 144.923 372.868 144.808 372.921 144.772C372.975 144.736 373.117 144.719 373.349 144.719C373.705 144.719 373.883 144.79 373.883 144.932C373.883 144.95 373.847 145.083 373.776 145.333C373.634 145.849 373.438 146.356 373.189 146.855C372.939 147.353 372.53 147.851 371.96 148.35C371.391 148.848 370.777 149.089 370.118 149.071C369.281 149.071 368.676 148.831 368.302 148.35C367.928 147.869 367.741 147.371 367.741 146.855C367.741 146.516 368.062 145.448 368.703 143.651C369.344 141.853 369.673 140.5 369.691 139.592C369.691 138.542 369.299 138.017 368.516 138.017H368.382C366.851 138.017 365.561 138.916 364.511 140.713L364.324 141.034L363.443 144.612C362.855 146.944 362.517 148.199 362.428 148.377C362.197 148.857 361.814 149.098 361.28 149.098C361.048 149.098 360.862 149.035 360.719 148.911C360.577 148.786 360.479 148.679 360.425 148.59C360.372 148.501 360.345 148.412 360.345 148.323C360.345 148.127 360.648 146.855 361.253 144.505L362.214 140.607C362.268 140.34 362.294 140.001 362.294 139.592C362.294 138.542 361.903 138.017 361.12 138.017H360.986C359.455 138.017 358.165 138.916 357.114 140.713L356.928 141.034L356.046 144.612C355.459 146.944 355.121 148.199 355.032 148.377C354.8 148.857 354.418 149.098 353.884 149.098C353.652 149.098 353.465 149.044 353.323 148.937C353.181 148.831 353.083 148.724 353.029 148.617C352.976 148.51 352.958 148.421 352.976 148.35C352.976 148.118 353.314 146.659 353.99 143.971C354.685 141.23 355.032 139.797 355.032 139.672C355.085 139.405 355.112 139.165 355.112 138.951C355.112 138.31 354.889 137.99 354.444 137.99C354.053 137.99 353.723 138.239 353.456 138.738C353.189 139.236 352.985 139.779 352.842 140.366C352.7 140.954 352.593 141.274 352.522 141.328C352.486 141.363 352.344 141.381 352.095 141.381H351.721C351.614 141.274 351.561 141.194 351.561 141.141Z" fill="black"/>
</g>
<rect x="268.711" y="98" width="101.614" height="25.7108" transform="rotate(90 268.711 98)" fill="#FEFFED" stroke="black" stroke-width="2"/>
<rect x="292.807" y="98" width="101.614" height="25.7108" transform="rotate(90 292.807 98)" fill="#FEFFED" stroke="black" stroke-width="2"/>
<rect x="316.904" y="98" width="101.614" height="25.7108" transform="rotate(90 316.904 98)" fill="#FEFFED" stroke="black" stroke-width="2"/>
<rect x="341" y="98" width="101.614" height="25.7108" transform="rotate(90 341 98)" fill="#FEFFED" stroke="black" stroke-width="2"/>
<rect x="243" y="98" width="98" height="19.6867" fill="#FEFFED" stroke="black" stroke-width="2"/>
<rect x="243" y="179.928" width="98" height="19.6867" fill="#FEFFED" stroke="black" stroke-width="2"/>
<path d="M251.638 179.53L341.397 125.916" stroke="black" stroke-width="2"/>
<path d="M332.413 118.687L243.205 172.904V180.133H252.784L340.795 127.121L340.795 118.687H332.413Z" fill="#FEFFED" stroke="black" stroke-width="2"/>
<g filter="url(#filter0_n_2340_176)">
<rect x="10" y="200" width="656" height="9" fill="black" fill-opacity="0.2"/>
<rect x="10.5" y="200.5" width="655" height="8" stroke="black"/>
</g>
<path d="M59.1093 189.038C60.0894 186.711 60.694 186.661 62.9126 183.809C65.1311 180.956 76.3825 190.94 76.3825 190.94L82.0874 193.158L87.1585 194.743C87.1585 194.743 88.5359 195.81 88.7431 196.803C88.9829 197.953 87.7923 199.656 87.7923 199.656H74.7978C74.7978 199.656 68.459 196.011 68.459 196.328C68.459 196.645 68.3005 198.229 67.9836 198.229C67.6667 198.229 64.4993 198.038 62.4372 197.279C60.5644 196.589 58 194.743 58 194.743C58 194.743 58.2284 191.13 59.1093 189.038Z" fill="black" stroke="#090909" stroke-linecap="round"/>
<path d="M128.836 191.732C129.816 189.405 129.628 188.441 131.847 185.589C134.066 182.736 149.754 189.989 149.754 189.989L159.896 192.841C159.896 192.841 164.166 193.571 164.809 195.694C165.082 196.596 164.809 198.108 164.809 198.108L157.044 199.497H144.049C144.049 199.497 139.454 197.279 139.454 197.596C139.454 197.912 139.454 199.497 139.137 199.497H134.699L128.836 198.108C128.836 198.108 127.955 193.824 128.836 191.732Z" fill="black" stroke="#090909" stroke-linecap="round"/>
<path d="M193.333 71.612C191.286 70.0521 187.153 68.9023 187.153 68.9023L178.135 78.1435C178.135 78.1435 183.984 82.5194 187.153 84.765C190.322 87.0105 196.027 90.6283 196.027 90.6283C196.027 90.6283 198.417 91.6005 204.426 93.3493C215.023 96.4331 233.426 100.929 235.169 101.087C236.913 101.246 239.131 96.1748 239.131 96.1748L242.934 90.6283C244.242 89.2409 245.754 88.4584 246.738 86.8251C247.614 85.3692 248.481 85.0005 247.689 83.4972C246.411 81.0728 243.567 84.8968 241.35 86.5081C238.254 88.7585 237.206 93.3493 235.633 93.3493C234.06 93.3493 228.988 90.0334 221.054 85.7428C216.976 83.5374 211.66 81.8239 207.754 80.6447C204.463 79.6513 199.514 77.4753 199.514 77.4753C199.514 77.4753 195.848 73.5279 193.333 71.612Z" stroke="black" stroke-linecap="round"/>
<path d="M241.667 88.7267C241.667 88.7267 243.813 86.4255 245.312 85.0819C246.096 84.3785 247.372 83.3387 247.372 83.3387" stroke="black" stroke-linecap="round"/>
<path d="M114.679 112.028C114.679 112.028 102.43 134.245 92.3881 148.153C88.3572 153.735 86.0916 154.635 81.1367 160.514C73.2848 169.829 63.2296 183.175 63.2296 183.175C63.2296 183.175 65.9079 186.866 68.3006 188.404C71.0829 190.193 76.3826 190.94 76.3826 190.94C76.3826 190.94 95.1545 173.785 106.492 162.098C117.017 151.249 132.481 133.415 132.481 133.415" stroke="black" stroke-linecap="round"/>
<path d="M122.18 91.7377C122.18 91.7377 113.908 99.3227 113.346 104.891C112.965 108.671 115.407 114.399 115.407 114.399C115.407 114.399 118.893 123.432 130.144 131.672L151.696 147.361C151.696 147.361 145.78 159.823 141.396 167.486C137.362 174.535 130.303 185.076 130.303 185.076C130.303 185.076 135.244 188.237 139.019 189.197C142.794 190.156 149.636 189.989 149.636 189.989C149.636 189.989 161.025 173.026 166.751 161.306C169.744 155.18 174.844 152.026 173.723 145.3C173.424 143.505 172.297 140.863 172.297 140.863L149.636 111.229" stroke="black" stroke-linecap="round"/>
<path d="M182.399 51.011C182.399 51.011 185.876 54.7777 188.104 57.1913M188.104 57.1913L192.699 59.0929C192.699 59.0929 194.911 57.1103 195.621 55.6066C196.02 54.7612 197.334 53.5358 196.978 52.4372C196.775 51.8111 195.877 51.7922 195.621 51.7999M192.699 59.0929C192.699 59.0929 189.899 57.9339 188.104 57.1913M195.621 51.7999C196.144 51.7702 199.471 51.5116 199.197 49.7432L199.038 48.9509C199.038 48.9509 199.803 49.1905 200.781 48.9509C201.482 48.7792 201.888 48.5411 202.366 48C203.781 46.3977 199.258 44.7922 200.306 42.929C202.065 39.8012 203.792 32.9454 203.792 32.9454L203.158 31.2022L193.175 28.8252L194.443 31.2022L193.175 35.3225L189.372 38.0164L188.579 40.3935H185.727V38.3334L181.765 35.0055L179.705 35.6394L179.388 38.3334L179.23 41.8197H178.12C178.12 41.8197 175.671 41.8197 175.055 41.8197C174.439 41.8197 173.683 43.246 173.683 43.246L174.634 45.3061L182.082 59.8853C182.082 59.8853 182.864 58.4345 184.618 57.5082C184.974 57.3199 187.719 57.0703 188.104 57.1913M195.621 51.7999C195.576 51.8025 195.552 51.8033 195.552 51.8033C195.552 51.8033 195.577 51.8012 195.621 51.7999Z" stroke="black"/>
<path d="M197.454 39.6012C197.454 39.6012 198.314 39.2141 198.88 39.2843C199.512 39.3626 200.306 40.0766 200.306 40.0766" stroke="black" stroke-linecap="round"/>
<path d="M197.922 41.9764C197.922 42.1777 197.699 42.2909 197.699 42.4896C197.699 42.5906 197.636 42.6619 197.6 42.7478C197.546 42.8805 197.489 43.0432 197.452 43.1822C197.409 43.3447 197.365 43.5187 197.365 43.6876C197.365 43.7757 197.365 43.8639 197.365 43.952C197.365 43.9812 197.391 44.2069 197.42 44.0772C197.436 44.0027 197.528 43.7775 197.582 43.7232C197.616 43.6891 197.639 43.6015 197.644 43.5562C197.663 43.3706 197.78 43.1467 197.86 42.9781C198.015 42.6511 198.033 42.3058 198.033 41.9486" stroke="black" stroke-linecap="round"/>
<path d="M179.23 41.5028C179.23 41.5028 179.165 43.6955 180.156 44.2183C180.668 44.4889 182.799 44.2993 182.799 44.2993" stroke="black" stroke-linecap="round"/>
<path d="M193.987 50.269C193.987 50.269 194.721 51.4008 195.255 51.6952C195.916 52.0602 196.523 51.6952 196.523 51.6952" stroke="black" stroke-linecap="round"/>
<path d="M173.626 42.9598C173.626 42.9598 173.273 42.8934 173.058 42.8138C172.811 42.7221 172.415 42.4535 172.458 42.5055C172.458 42.5055 171.724 42.3583 171.452 42.1404C171.099 41.8577 171.496 41.0168 171.509 40.68C171.521 40.3444 171.655 40.0917 171.655 39.7632C171.655 39.443 171.58 39.0585 171.525 38.741C171.424 38.1583 171.63 37.6833 171.728 37.1184C171.822 36.5755 171.801 36.0281 171.801 35.4795C171.801 35.0711 171.801 34.6628 171.801 34.2544C171.801 33.7698 171.582 33.3232 171.582 32.8427C171.582 32.4641 171.582 32.0855 171.582 31.7069C171.582 31.4323 171.501 30.9631 171.643 30.7049C171.945 30.1541 172.387 29.5873 172.778 29.0945C172.985 28.8338 173.03 28.5752 173.156 28.2872C173.276 28.0131 173.426 27.7672 173.517 27.4759C173.763 26.6865 174.165 25.9876 174.462 25.2245C174.691 24.6345 175.33 24.2215 175.598 23.6181C175.8 23.162 176.239 22.7177 176.588 22.3687C176.801 22.1548 177.014 21.8095 177.277 21.6547C177.948 21.2604 178.881 21.9335 179.614 21.6547C179.908 21.5427 179.969 20.6025 180.271 20.527C180.581 20.4494 180.84 20.2572 181.147 20.1781C181.677 20.042 182.356 19.9016 182.9 19.886C183.259 19.8758 183.624 19.7723 183.995 19.74C184.423 19.7028 184.876 19.4517 185.301 19.3587C185.984 19.2093 186.683 19.0177 187.386 19.0098C188.944 18.9923 190.454 18.9639 191.982 19.2694C192.208 19.3147 192.424 19.4023 192.648 19.452C192.989 19.5278 193.311 19.4624 193.67 19.452C194.49 19.4282 195.049 19.484 195.791 19.7765C196.565 20.0812 197.594 20.3497 198.197 20.9529C198.493 21.2494 198.701 21.5051 199.069 21.7155C199.501 21.9622 199.975 22.3183 200.424 22.5106C200.694 22.6263 200.921 22.8224 201.158 22.9853C201.372 23.1324 201.754 23.2562 201.901 23.4639C201.994 23.5957 202.205 23.6319 202.323 23.756C202.401 23.8392 202.459 23.9328 202.542 24.0156C202.765 24.2391 202.886 24.4716 203.053 24.7215C203.229 24.9853 203.322 25.2662 203.548 25.4922C203.674 25.6184 203.986 25.9303 203.986 25.9303C203.986 25.9303 203.937 26.421 204.018 26.6199C204.16 26.9688 205.008 27.3339 205.008 27.3339C205.008 27.3339 205.429 27.7273 205.625 27.9911C205.869 28.3199 206.296 28.8834 206.407 29.2729C206.453 29.4306 206.587 29.6356 206.667 29.78C206.766 29.9579 206.704 30.4737 206.704 30.4737C206.704 30.4737 206.415 31.6061 206.124 31.8245C205.966 31.9428 205.903 32.211 205.714 32.3316C205.48 32.4801 205.289 32.6833 205.053 32.8468C204.968 32.9053 203.942 33.5756 203.929 33.3214C203.906 32.886 203.767 31.9503 203.767 31.9503C203.767 31.9503 203.711 31.6216 203.637 31.4229C203.57 31.2438 203.588 31.0721 203.418 30.9848C203.229 30.888 202.981 31.0331 202.89 31.1146C202.8 31.1962 202.306 31.1309 202.306 31.1309C201.791 31.1507 201.356 31.1767 200.749 31.1471C200.35 31.1277 200.061 31.0578 199.73 31.0578C199.249 31.0578 198.823 30.7658 198.339 30.7658C197.814 30.7658 197.191 30.7585 196.7 30.5832C196.305 30.4422 195.979 30.2788 195.605 30.1451C195.125 29.9737 194.62 29.8658 194.181 29.6705C193.951 29.5684 193.757 29.5631 193.633 29.346C193.563 29.2234 193.166 29.1115 193.126 28.9728C193.065 28.7578 193.105 28.8999 193.228 29.0579C193.331 29.191 193.477 29.4196 193.56 29.565C193.657 29.7337 193.836 29.7734 193.925 29.9301C194.019 30.0931 194.322 30.2671 194.359 30.4372C194.423 30.7246 194.601 31.6559 194.38 31.8773C194.184 32.0731 194.123 32.3802 193.998 32.6237C193.835 32.9423 193.679 33.2647 193.577 33.6135C193.441 34.0759 193.25 34.5363 193.195 35.0008C193.132 35.5401 192.594 35.6771 192.319 36.0393C192.09 36.3408 191.8 36.5993 191.589 36.9155C191.436 37.1444 191.148 37.3296 191.074 37.5889C191.047 37.6829 190.687 37.7554 190.603 37.8485C190.477 37.9887 190.126 37.9216 189.95 37.9216C189.435 37.9216 189.252 38.2332 189.252 38.6883C189.252 38.9596 188.952 39.3197 188.814 39.5604C188.579 39.9726 188.299 40.3312 187.792 40.3312C187.346 40.3312 186.546 40.4601 186.315 39.9985C186.113 39.5941 186.112 39.3112 186.112 38.8546C186.112 38.6118 186.122 38.3669 186.112 38.1244C186.1 37.8219 185.085 37.5164 184.871 37.2076C184.742 37.0211 184.521 36.8408 184.36 36.6802C184.229 36.5497 184.124 36.3706 183.958 36.2786C183.791 36.1854 183.865 36.0302 183.666 35.942C183.367 35.8088 182.985 35.6147 182.717 35.4065C182.546 35.2736 181.92 35.3659 181.735 35.3659C181.22 35.3659 180.719 35.4155 180.239 35.6215C179.296 36.0256 179.614 37.2904 179.614 38.1406C179.614 38.6428 179.49 38.999 179.159 39.3657C178.91 39.6427 179.03 40.2566 179.03 40.607C179.03 40.8059 179.041 41.0088 179.03 41.2074" stroke="black" stroke-linecap="round"/>
<path d="M165.126 72.4043H154.825" stroke="black" stroke-linecap="round"/>
<path d="M175.933 80.3278C174.554 78.341 157.171 66.858 157.709 67.8087M175.933 80.3278C172.915 84.2724 167.15 90.684 161.671 97.4425C157.343 102.781 150.736 111.229 150.736 111.229C150.736 111.229 139.587 106.565 133.273 102.197C128.048 98.5815 120.944 91.5791 120.944 91.5791L130.452 80.3278C130.452 80.3278 143.145 57.3494 156.917 49.4262C162.246 46.3599 171.464 43.4043 171.464 43.4043H173.524L178.31 51.9617C180.6 56.9126 181.796 60.2021 182.589 60.6775C183.381 61.1529 188.928 66.5409 188.928 66.5409L182.589 74.4644C182.589 74.4644 177.458 78.4216 175.933 80.3278Z" stroke="black" stroke-linecap="round"/>
<g clip-path="url(#clip1_2340_176)">
<path d="M307.307 39.3729C306.999 39.3729 306.845 39.2824 306.845 39.1014C306.845 39.0652 306.872 38.9385 306.927 38.7214C306.999 38.4318 307.071 38.2689 307.144 38.2327C307.216 38.1965 307.424 38.1694 307.768 38.1513C308.257 38.1513 308.8 38.1241 309.397 38.0698C309.65 38.0155 309.822 37.9069 309.913 37.7441C309.949 37.6536 310.591 35.1108 311.84 30.1158C313.089 25.1208 313.722 22.5871 313.74 22.5147C313.74 22.388 313.704 22.3247 313.632 22.3247C313.487 22.2704 313.007 22.2251 312.193 22.1889H311.351C311.243 22.0804 311.189 22.008 311.189 21.9718C311.189 21.9356 311.207 21.7817 311.243 21.5103C311.315 21.2026 311.406 21.0126 311.514 20.9402H326.146C326.273 21.0126 326.337 21.1121 326.337 21.2388C326.337 21.3293 326.219 22.3428 325.984 24.2792C325.748 26.2157 325.622 27.2111 325.604 27.2654C325.567 27.3921 325.386 27.4554 325.061 27.4554H324.735C324.608 27.3649 324.545 27.2473 324.545 27.1025C324.545 27.0844 324.572 26.8672 324.626 26.451C324.681 26.0347 324.708 25.5552 324.708 25.0122C324.708 24.4693 324.644 24.0259 324.518 23.682C324.391 23.3382 324.219 23.0576 324.002 22.8405C323.785 22.6233 323.45 22.4785 322.997 22.4061C322.545 22.3337 322.084 22.2704 321.613 22.2161C321.142 22.1618 320.491 22.1527 319.658 22.1889H319.034C317.55 22.207 316.763 22.2342 316.672 22.2704C316.582 22.3066 316.518 22.379 316.482 22.4876C316.464 22.5057 316.156 23.6911 315.559 26.0438L314.691 29.5457H316.184C316.238 29.5457 316.446 29.5457 316.808 29.5457C317.17 29.5457 317.423 29.5367 317.568 29.5186C317.713 29.5005 317.912 29.4733 318.165 29.4371C318.419 29.4009 318.636 29.3376 318.817 29.2471C318.998 29.1566 319.152 29.048 319.278 28.9214C319.514 28.7042 319.713 28.4056 319.876 28.0255C320.038 27.6455 320.156 27.3016 320.228 26.9939C320.301 26.6863 320.346 26.5234 320.364 26.5053C320.418 26.4148 320.59 26.3696 320.88 26.3696H321.206C321.332 26.46 321.396 26.5505 321.396 26.641C321.396 26.6953 321.115 27.8807 320.554 30.1973C319.993 32.5138 319.686 33.7082 319.631 33.7806C319.595 33.9073 319.414 33.9707 319.088 33.9707H318.763C318.636 33.8621 318.573 33.7535 318.573 33.6449C318.573 33.5906 318.618 33.3915 318.708 33.0477C318.799 32.7038 318.844 32.3419 318.844 31.9618C318.844 31.437 318.663 31.1112 318.301 30.9845C317.939 30.8578 317.134 30.7945 315.885 30.7945H314.392L313.523 34.2421C312.944 36.4863 312.655 37.6626 312.655 37.7712C312.655 38.0246 313.46 38.1513 315.071 38.1513H315.749C315.858 38.2599 315.912 38.3232 315.912 38.3413C315.912 38.3594 315.894 38.5404 315.858 38.8842C315.785 39.1195 315.695 39.2914 315.586 39.4H315.125C314.383 39.3638 313.016 39.3457 311.026 39.3457C309.849 39.3457 308.953 39.3457 308.338 39.3457C307.723 39.3457 307.379 39.3548 307.307 39.3729Z" fill="black"/>
<path d="M322.598 13.2576C322.598 13.1128 322.644 12.9861 322.734 12.8775C322.825 12.7689 322.96 12.7147 323.141 12.7147C323.268 12.7147 323.377 12.7599 323.467 12.8504C323.558 12.9228 323.648 13.0947 323.739 13.3662C323.919 14.0358 324.29 14.5516 324.852 14.9135C325.051 15.0402 325.15 15.2031 325.15 15.4022C325.15 15.5651 325.123 15.6737 325.069 15.7279C325.014 15.7822 324.888 15.8637 324.689 15.9723C323.91 16.3704 323.232 16.9405 322.653 17.6825C322.616 17.7187 322.571 17.773 322.517 17.8454C322.463 17.9178 322.417 17.9721 322.381 18.0083C322.345 18.0445 322.3 18.0626 322.245 18.0626C322.191 18.0626 322.128 18.0716 322.055 18.0897C321.929 18.0897 321.811 18.0445 321.702 17.954C321.594 17.8635 321.531 17.7278 321.512 17.5468C321.512 17.2029 321.938 16.669 322.788 15.9451H318.146L313.504 15.918C313.269 15.7551 313.151 15.5832 313.151 15.4022C313.151 15.2755 313.269 15.0945 313.504 14.8593H323.25C322.816 14.1715 322.598 13.6376 322.598 13.2576Z" fill="black"/>
</g>
<g clip-path="url(#clip2_2340_176)">
<path d="M459.557 245.092C459.557 244.513 459.701 243.925 459.991 243.328C460.28 242.73 460.787 242.179 461.511 241.672C462.235 241.165 463.112 240.921 464.144 240.939C465.266 240.939 466.08 241.183 466.587 241.672C467.094 242.16 467.356 242.703 467.374 243.3C467.374 243.88 467.22 244.305 466.913 244.576C466.605 244.848 466.261 244.992 465.881 245.011C465.646 245.011 465.429 244.938 465.23 244.793C465.031 244.649 464.922 244.413 464.904 244.088C464.904 243.798 464.985 243.545 465.148 243.328C465.311 243.11 465.465 242.948 465.61 242.839C465.754 242.73 465.872 242.676 465.963 242.676C465.981 242.676 465.99 242.667 465.99 242.649C465.99 242.595 465.926 242.513 465.8 242.405C465.673 242.296 465.447 242.197 465.121 242.106C464.795 242.016 464.443 241.961 464.062 241.943C463.194 241.943 462.561 242.179 462.162 242.649C461.764 243.12 461.556 243.599 461.538 244.088C461.538 244.54 461.71 244.857 462.054 245.038C462.398 245.219 462.895 245.372 463.547 245.499C464.198 245.626 464.669 245.762 464.958 245.906C466.153 246.431 466.75 247.3 466.75 248.512C466.75 249.019 466.65 249.525 466.451 250.032C466.252 250.539 465.954 251.046 465.555 251.552C465.157 252.059 464.587 252.457 463.845 252.747C463.103 253.036 462.253 253.19 461.294 253.208C459.9 253.208 458.914 252.946 458.335 252.421C457.756 251.896 457.457 251.281 457.439 250.575C457.439 249.869 457.629 249.363 458.009 249.055C458.389 248.747 458.788 248.594 459.204 248.594C459.475 248.594 459.729 248.675 459.964 248.838C460.199 249.001 460.326 249.281 460.344 249.679C460.344 250.15 460.181 250.548 459.855 250.874C459.529 251.199 459.249 251.362 459.014 251.362C458.978 251.38 458.95 251.389 458.932 251.389C458.914 251.389 458.905 251.407 458.905 251.444C458.923 251.498 458.996 251.57 459.122 251.661C459.249 251.751 459.529 251.869 459.964 252.014C460.398 252.158 460.896 252.222 461.457 252.204C462.108 252.204 462.669 252.104 463.14 251.905C463.61 251.706 463.954 251.453 464.171 251.145C464.388 250.837 464.542 250.557 464.633 250.304C464.723 250.05 464.768 249.824 464.768 249.625C464.768 249.118 464.578 248.738 464.198 248.485C463.818 248.232 463.384 248.078 462.895 248.024C462.407 247.969 461.873 247.834 461.294 247.616C460.715 247.399 460.289 247.083 460.018 246.666C459.71 246.214 459.557 245.689 459.557 245.092Z" fill="black"/>
<path d="M467.322 233.257C467.322 233.112 467.368 232.986 467.458 232.877C467.549 232.769 467.684 232.714 467.865 232.714C467.992 232.714 468.101 232.76 468.191 232.85C468.282 232.922 468.372 233.094 468.463 233.366C468.643 234.035 469.014 234.551 469.575 234.913C469.774 235.04 469.874 235.203 469.874 235.402C469.874 235.564 469.847 235.673 469.793 235.727C469.738 235.782 469.612 235.863 469.413 235.972C468.634 236.37 467.956 236.94 467.377 237.682C467.341 237.718 467.295 237.772 467.241 237.845C467.187 237.917 467.142 237.971 467.105 238.007C467.069 238.044 467.024 238.062 466.97 238.062C466.915 238.062 466.852 238.071 466.78 238.089C466.653 238.089 466.535 238.044 466.427 237.953C466.318 237.863 466.255 237.727 466.237 237.546C466.237 237.202 466.662 236.668 467.512 235.945H462.871L458.229 235.917C457.994 235.754 457.876 235.583 457.876 235.402C457.876 235.275 457.994 235.094 458.229 234.859H467.974C467.54 234.171 467.322 233.637 467.322 233.257Z" fill="black"/>
</g>
<g clip-path="url(#clip3_2340_176)">
<path d="M333.95 81.7122C333.95 79.8662 334.303 77.9206 335.009 75.8756C335.715 73.8305 336.674 72.0659 337.887 70.5819C339.099 69.0978 340.357 68.2472 341.66 68.03C341.678 68.03 341.75 68.03 341.877 68.03C342.004 68.03 342.112 68.021 342.203 68.0029C343.18 68.0753 343.94 68.5187 344.483 69.3331C345.189 70.419 345.542 71.8759 345.542 73.7038C345.542 75.7851 345.135 77.9025 344.32 80.0562C343.506 82.2099 342.465 83.9745 341.198 85.3499C339.932 86.7254 338.719 87.4131 337.561 87.4131H337.371C336.719 87.4131 336.158 87.2321 335.688 86.8701C335.217 86.5082 334.864 86.0286 334.629 85.4313C334.394 84.8341 334.222 84.2278 334.113 83.6125C334.004 82.9972 333.95 82.3637 333.95 81.7122ZM343.397 71.7763C343.397 69.9303 342.918 69.0073 341.959 69.0073C341.307 69.0073 340.674 69.4145 340.058 70.229C339.443 71.0434 338.936 71.9664 338.538 72.998C338.14 74.0296 337.832 74.9345 337.615 75.7127C337.398 76.4909 337.28 76.9433 337.262 77.07C338.149 77.0881 339.027 77.0972 339.895 77.0972L342.529 77.07C342.547 77.0519 342.619 76.7533 342.746 76.1742C342.873 75.595 343.017 74.8711 343.18 74.0024C343.343 73.1337 343.415 72.3917 343.397 71.7763ZM336.068 83.5582C336.068 85.4766 336.547 86.4358 337.506 86.4358C337.778 86.4358 338.068 86.3453 338.375 86.1643C338.683 85.9833 339.054 85.6395 339.488 85.1327C339.923 84.626 340.357 83.8387 340.791 82.7709C341.226 81.7031 341.66 80.382 342.094 78.8074L342.23 78.3459H336.936C336.936 78.4002 336.855 78.7441 336.692 79.3775C336.529 80.011 336.384 80.7168 336.258 81.495C336.131 82.2732 336.068 82.961 336.068 83.5582Z" fill="black"/>
</g>
<line x1="324" y1="97.5" x2="399" y2="97.5" stroke="black" stroke-dasharray="15 15"/>
<path d="M328.646 96.3535C328.842 96.5488 329.158 96.5488 329.354 96.3535L332.536 93.1715C332.731 92.9763 332.731 92.6597 332.536 92.4644C332.34 92.2692 332.024 92.2692 331.828 92.4644L329 95.2929L326.172 92.4644C325.976 92.2692 325.66 92.2692 325.464 92.4644C325.269 92.6597 325.269 92.9763 325.464 93.1715L328.646 96.3535ZM323.483 64.8915C323.231 64.7798 322.936 64.8939 322.824 65.1465L321.003 69.2618C320.892 69.5143 321.006 69.8096 321.258 69.9213C321.511 70.0331 321.806 69.9189 321.918 69.6664L323.536 66.0083L327.194 67.6265C327.447 67.7382 327.742 67.624 327.854 67.3715C327.965 67.119 327.851 66.8237 327.599 66.712L323.483 64.8915ZM329 96H329.5C329.5 85.456 327.55 75.003 323.747 65.1685L323.281 65.3488L322.815 65.5291C326.572 75.2486 328.5 85.5793 328.5 96H329Z" fill="black"/>
<path d="M343.646 226.646C343.451 226.842 343.451 227.158 343.646 227.354L346.828 230.536C347.024 230.731 347.34 230.731 347.536 230.536C347.731 230.34 347.731 230.024 347.536 229.828L344.707 227L347.536 224.172C347.731 223.976 347.731 223.66 347.536 223.464C347.34 223.269 347.024 223.269 346.828 223.464L343.646 226.646ZM591.354 227.354C591.549 227.158 591.549 226.842 591.354 226.646L588.172 223.464C587.976 223.269 587.66 223.269 587.464 223.464C587.269 223.66 587.269 223.976 587.464 224.172L590.293 227L587.464 229.828C587.269 230.024 587.269 230.34 587.464 230.536C587.66 230.731 587.976 230.731 588.172 230.536L591.354 227.354ZM344 227L344 227.5L591 227.5L591 227L591 226.5L344 226.5L344 227Z" fill="black"/>
<line x1="593.5" y1="253" x2="593.5" y2="200" stroke="black" stroke-dasharray="10 10"/>
<line x1="341.5" y1="253" x2="341.5" y2="200" stroke="black" stroke-dasharray="10 10"/>
<defs>
<filter id="filter0_n_2340_176" x="10" y="200" width="656" height="9" filterUnits="userSpaceOnUse" color-interpolation-filters="sRGB">
<feFlood flood-opacity="0" result="BackgroundImageFix"/>
<feBlend mode="normal" in="SourceGraphic" in2="BackgroundImageFix" result="shape"/>
<feTurbulence type="fractalNoise" baseFrequency="0.054054055362939835 0.054054055362939835" stitchTiles="stitch" numOctaves="3" result="noise" seed="7598" />
<feColorMatrix in="noise" type="luminanceToAlpha" result="alphaNoise" />
<feComponentTransfer in="alphaNoise" result="coloredNoise1">
<feFuncA type="discrete" tableValues="1 1 1 1 1 1 1 1 1 1 1 1 1 1 1 1 1 1 1 1 1 1 1 1 1 1 1 1 1 1 1 1 1 1 1 1 1 1 1 1 1 1 1 1 1 1 1 1 1 1 1 0 0 0 0 0 0 0 0 0 0 0 0 0 0 0 0 0 0 0 0 0 0 0 0 0 0 0 0 0 0 0 0 0 0 0 0 0 0 0 0 0 0 0 0 0 0 0 0 0 "/>
</feComponentTransfer>
<feComposite operator="in" in2="shape" in="coloredNoise1" result="noise1Clipped" />
<feFlood flood-color="rgba(0, 0, 0, 0.25)" result="color1Flood" />
<feComposite operator="in" in2="noise1Clipped" in="color1Flood" result="color1" />
<feMerge result="effect1_noise_2340_176">
<feMergeNode in="shape" />
<feMergeNode in="color1" />
</feMerge>
</filter>
<clipPath id="clip0_2340_176">
<rect width="23.4435" height="12.0995" fill="white" transform="translate(351 137)"/>
</clipPath>
<clipPath id="clip1_2340_176">
<rect width="20.34" height="29.4" fill="white" transform="translate(306 10)"/>
</clipPath>
<clipPath id="clip2_2340_176">
<rect width="12.732" height="23.208" fill="white" transform="translate(456 230)"/>
</clipPath>
<clipPath id="clip3_2340_176">
<rect width="12.732" height="19.416" fill="white" transform="translate(333 68)"/>
</clipPath>
</defs>
</svg>
